<?xml version="1.0" encoding="utf-8"?>
<!-- Generator: Adobe Illustrator 25.4.1, SVG Export Plug-In . SVG Version: 6.00 Build 0)  -->
<svg version="1.1" id="Layer_1" xmlns="http://www.w3.org/2000/svg" xmlns:xlink="http://www.w3.org/1999/xlink" x="0px" y="0px"
	 viewBox="0 0 189 29.9" style="enable-background:new 0 0 189 29.9;" xml:space="preserve">
<style type="text/css">
	.st0{fill:none;stroke:#000000;stroke-width:0.5;stroke-miterlimit:10;stroke-dasharray:2,2;}
</style>
<g>
	<g>
		<path d="M4.8,3.8C4.5,3.4,3.9,3.2,3.4,3.2c-1,0-1.6,0.7-1.6,1.7c0,1,0.7,1.6,1.6,1.6c0.5,0,1-0.2,1.4-0.6v1.9C4.3,7.9,3.9,8,3.4,8
			C2.6,8,1.8,7.7,1.1,7.1c-0.7-0.6-1-1.4-1-2.3C0.2,4,0.5,3.2,1,2.6c0.6-0.6,1.4-1,2.3-1c0.5,0,1,0.1,1.4,0.3V3.8z"/>
		<path d="M7.4,2.2C7.4,2.6,7,3,6.6,3C6.2,3,5.8,2.6,5.8,2.2c0-0.4,0.4-0.8,0.8-0.8C7,1.4,7.4,1.7,7.4,2.2z M7.3,7.9H5.9V3.8h1.5
			V7.9z"/>
		<path d="M9.9,4.3L9.9,4.3c0.4-0.5,0.8-0.7,1.3-0.7c1.1,0,1.5,0.7,1.5,1.7v2.5h-1.5v-2c0-0.4,0.1-1.1-0.7-1.1c-0.6,0-0.8,0.4-0.8,1
			v2.1H8.4V3.8h1.5V4.3z"/>
		<path d="M18.1,6H15C15,6.6,15.4,7,16,7c0.3,0,0.5-0.1,0.7-0.4h1.4c-0.1,0.5-0.4,0.8-0.8,1.1C16.9,7.9,16.4,8,16,8
			c-1.4,0-2.4-0.8-2.4-2.2c0-1.4,0.9-2.2,2.3-2.2c1.4,0,2.2,0.9,2.2,2.3V6z M16.8,5.2c-0.1-0.4-0.4-0.6-0.8-0.6
			c-0.4,0-0.8,0.2-0.9,0.6H16.8z"/>
		<path d="M20.4,4.3L20.4,4.3c0.4-0.5,0.8-0.6,1.3-0.6c0.6,0,1.1,0.2,1.4,0.8c0.3-0.5,0.8-0.8,1.4-0.8c1,0,1.4,0.7,1.4,1.6v2.6h-1.5
			v-2c0-0.4,0-1.1-0.6-1.1c-0.7,0-0.7,0.6-0.7,1.1v2h-1.5v-2c0-0.5,0-1.2-0.6-1.2c-0.6,0-0.6,0.7-0.6,1.2v2h-1.5V3.8h1.5V4.3z"/>
		<path d="M31.5,7.9H30V7.4h0C29.8,7.8,29.3,8,28.8,8c-1.2,0-2.1-1-2.1-2.2c0-1.2,0.8-2.2,2.1-2.2c0.5,0,1,0.2,1.3,0.5V3.8h1.5V7.9z
			 M28.2,5.8c0,0.5,0.3,0.9,0.9,0.9c0.6,0,0.9-0.4,0.9-0.9c0-0.5-0.3-0.9-0.9-0.9C28.6,4.9,28.2,5.3,28.2,5.8z"/>
		<path d="M38,7.9h-1.6V3.2h-1.3V1.8h4.2v1.3H38V7.9z"/>
		<path d="M41,4.4L41,4.4c0.3-0.5,0.8-0.7,1.3-0.7h0.3v1.4C42.4,5,42.2,5,42,5c-0.8,0-1,0.5-1,1.2v1.7h-1.5V3.8H41V4.4z"/>
		<path d="M47.8,5.8c0,1.4-1.2,2.2-2.5,2.2c-1.3,0-2.5-0.8-2.5-2.2s1.2-2.2,2.5-2.2S47.8,4.4,47.8,5.8z M44.4,5.8
			c0,0.5,0.3,0.9,0.9,0.9s0.9-0.4,0.9-0.9c0-0.5-0.3-0.9-0.9-0.9S44.4,5.3,44.4,5.8z"/>
		<path d="M50.2,2.2c0,0.4-0.4,0.8-0.8,0.8c-0.4,0-0.8-0.4-0.8-0.8c0-0.4,0.4-0.8,0.8-0.8C49.8,1.4,50.2,1.7,50.2,2.2z M50.1,7.9
			h-1.5V3.8h1.5V7.9z"/>
		<path d="M53.9,4.8c-0.2-0.1-0.5-0.2-0.8-0.2c-0.2,0-0.5,0.1-0.5,0.3c0,0.3,0.5,0.3,0.7,0.4c0.7,0.1,1.2,0.5,1.2,1.2
			c0,1.1-1,1.5-1.9,1.5c-0.6,0-1.2-0.2-1.7-0.5l0.5-1c0.3,0.2,0.8,0.4,1.2,0.4c0.2,0,0.5-0.1,0.5-0.3c0-0.3-0.5-0.3-0.9-0.5
			c-0.5-0.1-0.9-0.3-0.9-1.1c0-1,0.9-1.5,1.8-1.5c0.5,0,0.9,0.1,1.4,0.3L53.9,4.8z"/>
		<path d="M57,2.2C57,2.6,56.6,3,56.2,3c-0.4,0-0.8-0.4-0.8-0.8c0-0.4,0.4-0.8,0.8-0.8C56.6,1.4,57,1.7,57,2.2z M56.9,7.9h-1.5V3.8
			h1.5V7.9z"/>
		<path d="M2.4,16.4l1.7-4.6h0.7l-2.4,6.4L0,11.8h0.7L2.4,16.4z"/>
		<path d="M6.6,12.7c0,0.3-0.2,0.5-0.5,0.5c-0.2,0-0.5-0.2-0.5-0.5c0-0.2,0.2-0.5,0.5-0.5C6.4,12.2,6.6,12.4,6.6,12.7z M6.5,17.9
			H5.8v-3.8h0.6V17.9z"/>
		<path d="M11.4,17.9h-0.6v-0.5h0C10.4,17.7,10,18,9.4,18c-1.1,0-1.8-0.9-1.8-2c0-1.1,0.7-2,1.8-2c0.5,0,1,0.2,1.3,0.6h0v-0.5h0.6
			V17.9z M8.3,15.9c0,0.7,0.4,1.4,1.2,1.4c0.8,0,1.3-0.7,1.3-1.4c0-0.8-0.5-1.4-1.3-1.4C8.8,14.6,8.3,15.2,8.3,15.9z"/>
		<path d="M21,14.8c0,0.8-0.1,1.5-0.6,2.1s-1.4,1-2.2,1c-1.7,0-3.1-1.4-3.1-3.1c0-1.7,1.4-3.1,3.1-3.1c1.1,0,1.9,0.5,2.6,1.3
			l-0.5,0.5c-0.5-0.7-1.2-1.1-2.1-1.1c-1.4,0-2.5,1.2-2.5,2.5c0,0.6,0.3,1.2,0.7,1.7c0.4,0.4,1.1,0.8,1.7,0.8c1,0,2.2-0.8,2.2-1.9
			h-1.8v-0.6H21z"/>
		<path d="M23,12.7c0,0.3-0.2,0.5-0.5,0.5c-0.2,0-0.5-0.2-0.5-0.5c0-0.2,0.2-0.5,0.5-0.5C22.8,12.2,23,12.4,23,12.7z M22.8,17.9
			h-0.6v-3.8h0.6V17.9z"/>
		<path d="M25,14.5L25,14.5c0.2-0.3,0.4-0.5,0.8-0.5c0.2,0,0.4,0.1,0.6,0.2l-0.3,0.6c-0.1-0.1-0.2-0.2-0.4-0.2
			C25,14.6,25,15.5,25,16v1.9h-0.6v-3.8H25V14.5z"/>
		<path d="M26.8,16c0-1.1,0.9-2,2-2s2,0.9,2,2s-0.9,2-2,2C27.7,18,26.8,17.1,26.8,16z M27.5,16c0,0.8,0.5,1.4,1.3,1.4
			c0.8,0,1.3-0.6,1.3-1.4c0-0.8-0.5-1.4-1.3-1.4C28,14.6,27.5,15.2,27.5,16z"/>
		<path d="M32.5,17.9h-0.6v-6.6h0.6V17.9z"/>
		<path d="M37.2,17.9h-0.6v-0.5h0c-0.3,0.4-0.8,0.6-1.3,0.6c-1.1,0-1.8-0.9-1.8-2c0-1.1,0.7-2,1.8-2c0.5,0,1,0.2,1.3,0.6h0v-0.5h0.6
			V17.9z M34.2,15.9c0,0.7,0.4,1.4,1.2,1.4c0.8,0,1.3-0.7,1.3-1.4c0-0.8-0.5-1.4-1.3-1.4C34.6,14.6,34.2,15.2,34.2,15.9z"/>
		<path d="M39.2,14.5L39.2,14.5c0.2-0.3,0.5-0.5,0.9-0.5c0.4,0,0.8,0.2,1,0.6c0.2-0.4,0.7-0.6,1.1-0.6c1,0,1.2,0.8,1.2,1.6v2.3h-0.6
			v-2.2c0-0.5,0-1.1-0.7-1.1c-0.7,0-0.8,0.7-0.8,1.3v2h-0.6v-2.1c0-0.5-0.1-1.1-0.7-1.1c-0.8,0-0.8,0.8-0.8,1.3v1.9h-0.6v-3.8h0.6
			V14.5z"/>
		<path d="M44.6,16c0-1.1,0.9-2,2-2s2,0.9,2,2s-0.9,2-2,2C45.4,18,44.6,17.1,44.6,16z M45.2,16c0,0.8,0.5,1.4,1.3,1.4
			c0.8,0,1.3-0.6,1.3-1.4c0-0.8-0.5-1.4-1.3-1.4C45.7,14.6,45.2,15.2,45.2,16z"/>
		<path d="M52.9,17.9h-0.7v-6h0.7V17.9z"/>
		<path d="M54.9,14.6L54.9,14.6c0.3-0.4,0.6-0.6,1.1-0.6c1,0,1.3,0.8,1.3,1.6v2.2h-0.6v-2.1c0-0.6,0-1.2-0.8-1.2
			c-0.9,0-0.9,0.8-0.9,1.5v1.8h-0.6v-3.8h0.6V14.6z"/>
		<path d="M61.4,17.3L61.4,17.3c-0.3,0.4-0.8,0.6-1.3,0.6c-1.1,0-1.8-0.9-1.8-2c0-1.1,0.7-2,1.8-2c0.5,0,1,0.2,1.3,0.6h0v-3.4h0.6
			v6.6h-0.6V17.3z M59,15.9c0,0.7,0.4,1.4,1.2,1.4c0.8,0,1.3-0.7,1.3-1.4c0-0.8-0.5-1.4-1.3-1.4C59.4,14.6,59,15.2,59,15.9z"/>
		<path d="M64,16.2c0,0.6,0.1,1.2,0.8,1.2s0.8-0.5,0.8-1.2v-2.1h0.6v2.2c0,1-0.4,1.7-1.5,1.7s-1.5-0.7-1.5-1.7v-2.2H64V16.2z"/>
		<path d="M68.3,14.6L68.3,14.6c0.3-0.4,0.6-0.6,1.1-0.6c1,0,1.3,0.8,1.3,1.6v2.2H70v-2.1c0-0.6,0-1.2-0.8-1.2
			c-0.9,0-0.9,0.8-0.9,1.5v1.8h-0.6v-3.8h0.6V14.6z"/>
		<path d="M71.7,16c0-1.1,0.9-2,2-2s2,0.9,2,2s-0.9,2-2,2C72.6,18,71.7,17.1,71.7,16z M72.3,16c0,0.8,0.5,1.4,1.3,1.4
			c0.8,0,1.3-0.6,1.3-1.4c0-0.8-0.5-1.4-1.3-1.4C72.9,14.6,72.3,15.2,72.3,16z"/>
		<path d="M80,12.4l0.4-0.6h1.3v6H81v-5.4H80z"/>
		<path d="M4.6,24.8c0,1.5-0.8,3.1-2.2,3.1c-1.4,0-2.2-1.6-2.2-3.1c0-1.2,0.6-3.1,2.2-3.1S4.6,23.6,4.6,24.8z M0.9,24.9
			c0,0.8,0.4,2.5,1.5,2.5s1.5-1.6,1.5-2.5c0-0.9-0.4-2.5-1.5-2.5C1.3,22.3,0.9,24,0.9,24.9z"/>
		<path d="M9.7,24.8c0,1.5-0.8,3.1-2.2,3.1c-1.4,0-2.2-1.6-2.2-3.1c0-1.2,0.6-3.1,2.2-3.1S9.7,23.6,9.7,24.8z M6,24.9
			c0,0.8,0.4,2.5,1.5,2.5S9,25.7,9,24.9c0-0.9-0.4-2.5-1.5-2.5C6.4,22.3,6,24,6,24.9z"/>
		<path d="M11.4,22.4l0.4-0.6h1.3v6h-0.7v-5.4H11.4z"/>
		<path d="M17.5,22.4l-0.4,1.3l0.4,0c1.2,0,2,0.9,2,2.1c0,1.2-1,2.2-2.2,2.2c-0.8,0-1.4-0.4-1.8-1.1l0.5-0.4
			c0.3,0.5,0.8,0.8,1.3,0.8c0.9,0,1.5-0.7,1.5-1.5c0-0.9-0.7-1.5-1.5-1.5c-0.4,0-0.8,0.2-1.1,0.4l0.9-2.9h2.4v0.6H17.5z"/>
		<path d="M22.5,24.4c0.6,0,1.2-0.2,1.2-1c0-0.6-0.4-1.1-1.1-1.1c-0.6,0-0.9,0.4-1,1H21c0.1-1,0.7-1.6,1.7-1.6c1,0,1.7,0.7,1.7,1.6
			c0,0.5-0.3,1.1-0.8,1.3c0.6,0.3,0.9,0.9,0.9,1.5c0,1.1-0.8,1.8-1.9,1.8c-1,0-1.8-0.7-1.8-1.7h0.7c0,0.6,0.6,1,1.2,1
			c0.7,0,1.2-0.5,1.2-1.2c0-0.8-0.5-1.2-1.3-1.1V24.4z"/>
		<path d="M29.3,27.9h-0.7v-6h0.9c1.1,0,2.2,0.3,2.2,1.7c0,0.9-0.6,1.6-1.5,1.7l1.9,2.7h-0.8l-1.8-2.6h-0.2V27.9z M29.3,24.6h0.2
			c0.8,0,1.5-0.1,1.5-1.1c0-1-0.7-1.1-1.5-1.1h-0.2V24.6z"/>
		<path d="M32.8,26c0-1.1,0.9-2,2-2s2,0.9,2,2s-0.9,2-2,2C33.7,28,32.8,27.1,32.8,26z M33.4,26c0,0.8,0.5,1.4,1.3,1.4
			c0.8,0,1.3-0.6,1.3-1.4c0-0.8-0.5-1.4-1.3-1.4C34,24.6,33.4,25.2,33.4,26z"/>
		<path d="M38.4,24.5L38.4,24.5c0.2-0.3,0.5-0.5,0.9-0.5c0.4,0,0.8,0.2,1,0.6c0.2-0.4,0.7-0.6,1.1-0.6c1,0,1.2,0.8,1.2,1.6v2.3h-0.6
			v-2.2c0-0.5,0-1.1-0.7-1.1c-0.7,0-0.8,0.7-0.8,1.3v2h-0.6v-2.1c0-0.5-0.1-1.1-0.7-1.1c-0.8,0-0.8,0.8-0.8,1.3v1.9h-0.6v-3.8h0.6
			V24.5z"/>
		<path d="M47.5,27.9h-0.6v-0.5h0c-0.3,0.4-0.8,0.6-1.3,0.6c-1.1,0-1.8-0.9-1.8-2c0-1.1,0.7-2,1.8-2c0.5,0,1,0.2,1.3,0.6h0v-0.5h0.6
			V27.9z M44.4,25.9c0,0.7,0.4,1.4,1.2,1.4c0.8,0,1.3-0.7,1.3-1.4c0-0.8-0.5-1.4-1.3-1.4C44.9,24.6,44.4,25.2,44.4,25.9z"/>
	</g>
	<g>
		<path d="M109.9,15c-0.2-0.2-0.5-0.3-0.8-0.3c-0.6,0-1,0.4-1,1c0,0.6,0.4,1,1,1c0.3,0,0.5-0.1,0.7-0.3v1.2c-0.3,0.2-0.7,0.2-1,0.2
			c-1.2,0-2.2-0.9-2.2-2.1c0-1.3,1-2.2,2.3-2.2c0.3,0,0.7,0.1,1,0.2V15z"/>
		<path d="M112.5,12.1c0,0.4-0.4,0.8-0.8,0.8c-0.4,0-0.8-0.4-0.8-0.8c0-0.4,0.4-0.8,0.8-0.8C112.1,11.3,112.5,11.7,112.5,12.1z
			 M112.4,17.8H111v-4.1h1.5V17.8z"/>
		<path d="M115,14.2L115,14.2c0.4-0.5,0.8-0.7,1.3-0.7c1.1,0,1.5,0.7,1.5,1.7v2.5h-1.5v-2c0-0.4,0.1-1.1-0.7-1.1
			c-0.6,0-0.8,0.4-0.8,1v2.1h-1.5v-4.1h1.5V14.2z"/>
		<path d="M123.2,16h-3.1c0,0.6,0.3,0.9,0.9,0.9c0.3,0,0.5-0.1,0.7-0.4h1.4c-0.1,0.5-0.4,0.8-0.8,1.1c-0.4,0.2-0.8,0.3-1.3,0.3
			c-1.4,0-2.4-0.8-2.4-2.2c0-1.4,0.9-2.2,2.3-2.2c1.4,0,2.3,0.9,2.3,2.3V16z M121.9,15.2c-0.1-0.4-0.4-0.6-0.8-0.6
			c-0.4,0-0.8,0.2-0.9,0.6H121.9z"/>
		<path d="M125.5,14.2L125.5,14.2c0.4-0.5,0.8-0.6,1.3-0.6c0.6,0,1.1,0.2,1.4,0.8c0.3-0.5,0.8-0.8,1.4-0.8c1,0,1.4,0.7,1.4,1.6v2.6
			h-1.5v-2c0-0.4,0-1.1-0.6-1.1c-0.7,0-0.7,0.6-0.7,1.1v2h-1.5v-2c0-0.5,0-1.2-0.6-1.2c-0.6,0-0.6,0.7-0.6,1.2v2H124v-4.1h1.5V14.2z
			"/>
		<path d="M136.6,17.8h-1.5v-0.5h0c-0.3,0.4-0.8,0.6-1.2,0.6c-1.2,0-2.1-1-2.1-2.2s0.8-2.2,2.1-2.2c0.5,0,1,0.2,1.3,0.5v-0.4h1.5
			V17.8z M133.3,15.8c0,0.5,0.3,0.9,0.9,0.9s0.9-0.4,0.9-0.9c0-0.5-0.3-0.9-0.9-0.9S133.3,15.3,133.3,15.8z"/>
		<path d="M139.3,17.8h-1.5v-2.9h-0.5v-1.2h0.5v-1.2h1.5v1.2h0.8v1.2h-0.8V17.8z"/>
		<path d="M142.2,14.4L142.2,14.4c0.3-0.5,0.8-0.7,1.3-0.7h0.3v1.4c-0.2-0.1-0.4-0.1-0.6-0.1c-0.8,0-1,0.5-1,1.2v1.7h-1.5v-4.1h1.5
			V14.4z"/>
		<path d="M149.1,15.8c0,1.4-1.2,2.2-2.5,2.2c-1.3,0-2.5-0.8-2.5-2.2s1.2-2.2,2.5-2.2C147.9,13.6,149.1,14.4,149.1,15.8z
			 M145.6,15.8c0,0.5,0.3,0.9,0.9,0.9s0.9-0.4,0.9-0.9c0-0.5-0.3-0.9-0.9-0.9S145.6,15.3,145.6,15.8z"/>
		<path d="M151.4,12.1c0,0.4-0.4,0.8-0.8,0.8c-0.4,0-0.8-0.4-0.8-0.8c0-0.4,0.4-0.8,0.8-0.8C151,11.3,151.4,11.7,151.4,12.1z
			 M151.3,17.8h-1.5v-4.1h1.5V17.8z"/>
		<path d="M155.2,14.8c-0.2-0.1-0.5-0.2-0.8-0.2c-0.2,0-0.5,0.1-0.5,0.3c0,0.3,0.5,0.3,0.7,0.4c0.7,0.1,1.2,0.5,1.2,1.2
			c0,1.1-1,1.5-1.9,1.5c-0.6,0-1.2-0.2-1.7-0.5l0.5-1c0.3,0.2,0.8,0.4,1.2,0.4c0.2,0,0.5-0.1,0.5-0.3c0-0.3-0.5-0.3-0.9-0.5
			c-0.5-0.1-0.9-0.3-0.9-1.1c0-1,0.9-1.5,1.8-1.5c0.5,0,0.9,0.1,1.4,0.3L155.2,14.8z"/>
		<path d="M158.3,12.1c0,0.4-0.4,0.8-0.8,0.8c-0.4,0-0.8-0.4-0.8-0.8c0-0.4,0.4-0.8,0.8-0.8C157.9,11.3,158.3,11.7,158.3,12.1z
			 M158.2,17.8h-1.5v-4.1h1.5V17.8z"/>
		<path d="M161.1,17c0,0.5-0.4,0.9-0.9,0.9s-0.9-0.4-0.9-0.9c0-0.5,0.4-0.9,0.9-0.9S161.1,16.5,161.1,17z"/>
		<path d="M163.7,12.1c0,0.4-0.4,0.8-0.8,0.8c-0.4,0-0.8-0.4-0.8-0.8c0-0.4,0.4-0.8,0.8-0.8C163.4,11.3,163.7,11.7,163.7,12.1z
			 M163.7,17.8h-1.5v-4.1h1.5V17.8z"/>
		<path d="M166.4,17.8h-1.5v-2.9h-0.5v-1.2h0.5v-1.2h1.5v1.2h0.8v1.2h-0.8V17.8z"/>
		<path d="M108,22.6c0,0.3-0.2,0.5-0.5,0.5c-0.2,0-0.5-0.2-0.5-0.5c0-0.2,0.2-0.5,0.5-0.5C107.7,22.2,108,22.4,108,22.6z
			 M107.8,27.8h-0.6v-3.8h0.6V27.8z"/>
		<path d="M110,24.5L110,24.5c0.3-0.4,0.6-0.6,1.1-0.6c1,0,1.3,0.8,1.3,1.6v2.2h-0.6v-2.1c0-0.6,0-1.2-0.8-1.2
			c-0.9,0-0.9,0.8-0.9,1.5v1.8h-0.6v-3.8h0.6V24.5z"/>
		<path d="M114.4,27.8h-0.6v-3.2h-0.4v-0.6h0.4v-1.5c0-0.3,0-0.7,0.2-1c0.2-0.3,0.6-0.5,1-0.5c0.2,0,0.3,0,0.5,0.1v0.6
			c-0.1,0-0.3-0.1-0.4-0.1c-0.5,0-0.5,0.4-0.5,1v1.3h1v0.6h-1V27.8z"/>
		<path d="M115.7,26c0-1.1,0.9-2,2-2s2,0.9,2,2s-0.9,2-2,2C116.6,27.9,115.7,27.1,115.7,26z M116.4,25.9c0,0.8,0.5,1.4,1.3,1.4
			s1.3-0.6,1.3-1.4c0-0.8-0.5-1.4-1.3-1.4S116.4,25.2,116.4,25.9z"/>
		<path d="M124.4,23.3h0.6l-0.4,2c-0.1,0.3-0.2,0.7,0.1,0.7c0.4,0,0.9-0.8,0.9-1.5c0.1-1.4-0.9-2.2-2.2-2.2c-1.4,0-2.5,1.1-2.5,2.5
			c0,1.5,1.1,2.5,2.6,2.5c0.7,0,1.2-0.1,1.5-0.4l0.6,0.4c-0.6,0.3-1.2,0.5-2.2,0.5c-1.7,0-3.1-1.3-3.1-3.1c0-1.8,1.4-3.1,3.1-3.1
			c0.7,0,1.4,0.2,1.9,0.7c0.5,0.5,0.9,1.1,0.9,1.8c0,0.7-0.2,1.3-0.5,1.7c-0.4,0.5-0.8,0.7-1.2,0.7c-0.2,0-0.4-0.2-0.4-0.5
			c-0.3,0.3-0.6,0.5-1.1,0.5c-0.7,0-1.3-0.6-1.3-1.5c0-1,0.6-1.9,1.6-1.9c0.4,0,0.7,0.1,1.1,0.6L124.4,23.3z M123.1,26
			c0.7,0,1-0.6,1.1-1.2c0.1-0.6-0.3-1.1-0.8-1.1c-0.6,0-1.1,0.7-1.1,1.3C122.2,25.6,122.5,26,123.1,26z"/>
		<path d="M127.9,24.6L127.9,24.6c0.3-0.4,0.8-0.6,1.3-0.6c1.1,0,1.8,1,1.8,2c0,1.1-0.7,2-1.8,2c-0.5,0-1-0.2-1.3-0.6h0v2.6h-0.6
			v-5.9h0.6V24.6z M127.9,25.9c0,0.7,0.4,1.4,1.2,1.4c0.8,0,1.3-0.7,1.3-1.4c0-0.8-0.5-1.4-1.3-1.4
			C128.3,24.6,127.9,25.2,127.9,25.9z"/>
		<path d="M133,22.6c0,0.3-0.2,0.5-0.5,0.5c-0.2,0-0.5-0.2-0.5-0.5c0-0.2,0.2-0.5,0.5-0.5C132.7,22.2,133,22.4,133,22.6z
			 M132.8,27.8h-0.6v-3.8h0.6V27.8z"/>
		<path d="M137.1,25.2L137.1,25.2c-0.3-0.4-0.7-0.6-1.2-0.6c-0.8,0-1.3,0.6-1.3,1.4c0,0.7,0.5,1.4,1.3,1.4c0.5,0,0.9-0.2,1.2-0.6h0
			v0.9c-0.4,0.2-0.7,0.4-1.2,0.4c-1.1,0-2-0.8-2-2c0-1.1,0.9-2,2-2c0.4,0,0.8,0.1,1.2,0.4V25.2z"/>
		<path d="M141.1,25.2L141.1,25.2c-0.3-0.4-0.7-0.6-1.2-0.6c-0.8,0-1.3,0.6-1.3,1.4c0,0.7,0.5,1.4,1.3,1.4c0.5,0,0.9-0.2,1.2-0.6h0
			v0.9c-0.4,0.2-0.7,0.4-1.2,0.4c-1.1,0-2-0.8-2-2c0-1.1,0.9-2,2-2c0.4,0,0.8,0.1,1.2,0.4V25.2z"/>
		<path d="M141.9,26c0-1.1,0.9-2,2-2s2,0.9,2,2s-0.9,2-2,2S141.9,27.1,141.9,26z M142.6,25.9c0,0.8,0.5,1.4,1.3,1.4s1.3-0.6,1.3-1.4
			c0-0.8-0.5-1.4-1.3-1.4S142.6,25.2,142.6,25.9z"/>
		<path d="M147.5,27.8h-0.6v-6.6h0.6V27.8z"/>
		<path d="M148.6,26c0-1.1,0.9-2,2-2s2,0.9,2,2s-0.9,2-2,2S148.6,27.1,148.6,26z M149.2,25.9c0,0.8,0.5,1.4,1.3,1.4s1.3-0.6,1.3-1.4
			c0-0.8-0.5-1.4-1.3-1.4S149.2,25.2,149.2,25.9z"/>
		<path d="M157,27.8h-0.6v-0.5h0c-0.3,0.4-0.8,0.6-1.3,0.6c-1.1,0-1.8-0.9-1.8-2c0-1.1,0.7-2,1.8-2c0.5,0,1,0.2,1.3,0.6h0v-0.5h0.6
			V27.8z M153.9,25.9c0,0.7,0.4,1.4,1.2,1.4c0.8,0,1.3-0.7,1.3-1.4c0-0.8-0.5-1.4-1.3-1.4C154.4,24.6,153.9,25.2,153.9,25.9z"/>
		<path d="M159,24.5L159,24.5c0.2-0.3,0.5-0.5,0.9-0.5c0.4,0,0.8,0.2,1,0.6c0.2-0.4,0.7-0.6,1.1-0.6c1,0,1.2,0.8,1.2,1.6v2.3h-0.6
			v-2.2c0-0.5,0-1.1-0.7-1.1c-0.7,0-0.8,0.7-0.8,1.3v2h-0.6v-2.1c0-0.5-0.1-1.1-0.7-1.1c-0.8,0-0.8,0.8-0.8,1.3v1.9h-0.6v-3.8h0.6
			V24.5z"/>
		<path d="M165,26.1c0,0.7,0.5,1.3,1.2,1.3c0.5,0,0.9-0.3,1.1-0.8l0.5,0.3c-0.4,0.7-1,1.1-1.7,1.1c-1.1,0-1.8-0.9-1.8-1.9
			c0-1.1,0.6-2,1.8-2c1.2,0,1.9,1,1.8,2.1H165z M167.2,25.5c-0.1-0.5-0.5-1-1.1-1c-0.6,0-1.1,0.4-1.1,1H167.2z"/>
		<path d="M169.6,24.5L169.6,24.5c0.2-0.3,0.4-0.5,0.8-0.5c0.2,0,0.4,0.1,0.6,0.2l-0.3,0.6c-0.1-0.1-0.2-0.2-0.4-0.2
			c-0.7,0-0.7,0.9-0.7,1.4v1.9h-0.6v-3.8h0.6V24.5z"/>
		<path d="M172.7,22.6c0,0.3-0.2,0.5-0.5,0.5c-0.2,0-0.5-0.2-0.5-0.5c0-0.2,0.2-0.5,0.5-0.5C172.5,22.2,172.7,22.4,172.7,22.6z
			 M172.6,27.8h-0.6v-3.8h0.6V27.8z"/>
		<path d="M176.8,25.2L176.8,25.2c-0.3-0.4-0.7-0.6-1.2-0.6c-0.8,0-1.3,0.6-1.3,1.4c0,0.7,0.5,1.4,1.3,1.4c0.5,0,0.9-0.2,1.2-0.6h0
			v0.9c-0.4,0.2-0.7,0.4-1.2,0.4c-1.1,0-2-0.8-2-2c0-1.1,0.9-2,2-2c0.4,0,0.8,0.1,1.2,0.4V25.2z"/>
		<path d="M181.5,27.8h-0.6v-0.5h0c-0.3,0.4-0.8,0.6-1.3,0.6c-1.1,0-1.8-0.9-1.8-2c0-1.1,0.7-2,1.8-2c0.5,0,1,0.2,1.3,0.6h0v-0.5
			h0.6V27.8z M178.4,25.9c0,0.7,0.4,1.4,1.2,1.4c0.8,0,1.3-0.7,1.3-1.4c0-0.8-0.5-1.4-1.3-1.4C178.8,24.6,178.4,25.2,178.4,25.9z"/>
		<path d="M183.9,27.5c0,0.2-0.2,0.5-0.4,0.5c-0.2,0-0.4-0.2-0.4-0.5c0-0.2,0.2-0.4,0.4-0.4C183.7,27,183.9,27.2,183.9,27.5z"/>
		<path d="M186.3,22.6c0,0.3-0.2,0.5-0.5,0.5c-0.2,0-0.5-0.2-0.5-0.5c0-0.2,0.2-0.5,0.5-0.5C186.1,22.2,186.3,22.4,186.3,22.6z
			 M186.2,27.8h-0.6v-3.8h0.6V27.8z"/>
		<path d="M188.4,27.8h-0.6v-3.2h-0.4v-0.6h0.4v-1.4h0.6v1.4h0.7v0.6h-0.7V27.8z"/>
	</g>
	<line class="st0" x1="95.4" y1="0" x2="95.4" y2="29.9"/>
</g>
<g>
</g>
<g>
</g>
<g>
</g>
<g>
</g>
<g>
</g>
<g>
</g>
</svg>
