<?xml version="1.0" encoding="utf-8"?>
<!-- Generator: Adobe Illustrator 25.4.1, SVG Export Plug-In . SVG Version: 6.00 Build 0)  -->
<svg version="1.1" id="Layer_1" xmlns="http://www.w3.org/2000/svg" xmlns:xlink="http://www.w3.org/1999/xlink" x="0px" y="0px"
	 viewBox="0 0 203.3 69.5" style="enable-background:new 0 0 203.3 69.5;" xml:space="preserve">
<g>
	<g>
		<path d="M150.6,27.2c0,0.5,0.1,1,0.7,1s0.7-0.4,0.7-1v-1.7h0.5v1.8c0,0.8-0.3,1.4-1.2,1.4s-1.2-0.6-1.2-1.4v-1.8h0.5V27.2z"/>
		<path d="M154.1,25.9L154.1,25.9c0.2-0.3,0.5-0.5,0.9-0.5c0.8,0,1,0.6,1,1.3v1.8h-0.5v-1.7c0-0.5,0-0.9-0.6-0.9
			c-0.7,0-0.8,0.7-0.8,1.2v1.4h-0.5v-3h0.5V25.9z"/>
		<path d="M159.7,26L159.7,26c0.3-0.3,0.6-0.5,1.1-0.5c0.9,0,1.5,0.8,1.5,1.6c0,0.9-0.5,1.6-1.5,1.6c-0.4,0-0.8-0.2-1-0.5h0v2.1
			h-0.5v-4.7h0.5V26z M159.7,27c0,0.6,0.3,1.2,1,1.2c0.7,0,1-0.5,1-1.2c0-0.6-0.4-1.1-1-1.1C160.1,25.9,159.7,26.5,159.7,27z"/>
		<path d="M163.6,25.9L163.6,25.9c0.2-0.2,0.3-0.4,0.7-0.4c0.2,0,0.3,0.1,0.5,0.1l-0.2,0.5c-0.1-0.1-0.2-0.1-0.3-0.1
			c-0.6,0-0.6,0.7-0.6,1.1v1.5H163v-3h0.5V25.9z"/>
		<path d="M165.1,27.1c0-0.9,0.7-1.6,1.6-1.6c0.9,0,1.6,0.7,1.6,1.6c0,0.9-0.7,1.6-1.6,1.6C165.8,28.7,165.1,28,165.1,27.1z
			 M165.6,27.1c0,0.6,0.4,1.1,1.1,1.1c0.6,0,1.1-0.5,1.1-1.1c0-0.6-0.4-1.1-1.1-1.1C166.1,25.9,165.6,26.5,165.6,27.1z"/>
		<path d="M171.9,28.4c0,0.5,0,0.9-0.3,1.3c-0.3,0.4-0.7,0.5-1.2,0.5c-0.8,0-1.5-0.5-1.5-1.4h0.5c0,0.6,0.4,0.9,1,0.9
			c0.8,0,1-0.6,1-1.3v-0.4h0c-0.2,0.3-0.6,0.5-1.1,0.5c-0.9,0-1.4-0.7-1.4-1.6c0-0.9,0.6-1.6,1.5-1.6c0.4,0,0.8,0.2,1,0.5h0v-0.4
			h0.5V28.4z M169.4,27c0,0.6,0.3,1.2,1,1.2c0.7,0,1-0.5,1-1.2c0-0.6-0.4-1.1-1-1.1C169.8,25.9,169.4,26.5,169.4,27z"/>
		<path d="M173.3,27.2c0,0.6,0.4,1,1,1c0.4,0,0.7-0.3,0.9-0.6l0.4,0.3c-0.3,0.5-0.8,0.9-1.4,0.9c-0.9,0-1.5-0.7-1.5-1.6
			c0-0.9,0.5-1.6,1.5-1.6c1,0,1.5,0.8,1.4,1.7H173.3z M175.1,26.7c-0.1-0.4-0.4-0.8-0.9-0.8c-0.4,0-0.9,0.4-0.9,0.8H175.1z"/>
		<path d="M177.1,28.6h-0.5V26h-0.3v-0.5h0.3v-1.1h0.5v1.1h0.5V26h-0.5V28.6z"/>
		<path d="M178.7,28.6h-0.5V26h-0.3v-0.5h0.3v-1.1h0.5v1.1h0.5V26h-0.5V28.6z"/>
		<path d="M179.6,27.1c0-0.9,0.7-1.6,1.6-1.6c0.9,0,1.6,0.7,1.6,1.6c0,0.9-0.7,1.6-1.6,1.6C180.3,28.7,179.6,28,179.6,27.1z
			 M180.1,27.1c0,0.6,0.4,1.1,1.1,1.1c0.6,0,1.1-0.5,1.1-1.1c0-0.6-0.4-1.1-1.1-1.1C180.6,25.9,180.1,26.5,180.1,27.1z"/>
		<path d="M188,28.2L188,28.2c-0.3,0.3-0.6,0.5-1.1,0.5c-0.9,0-1.5-0.8-1.5-1.6c0-0.9,0.6-1.6,1.5-1.6c0.4,0,0.8,0.2,1,0.5h0v-2.7
			h0.5v5.3H188V28.2z M186,27c0,0.6,0.3,1.2,1,1.2c0.7,0,1-0.5,1-1.2c0-0.6-0.4-1.1-1-1.1C186.4,25.9,186,26.5,186,27z"/>
		<path d="M190.4,24.4c0,0.2-0.2,0.4-0.4,0.4c-0.2,0-0.4-0.2-0.4-0.4c0-0.2,0.2-0.4,0.4-0.4C190.2,24,190.4,24.2,190.4,24.4z
			 M190.3,28.6h-0.5v-3h0.5V28.6z"/>
	</g>
	<g>
		<path d="M118.4,2v65.5H2V2H118.4 M120.4,0h-2H2H0v2v65.5v2h2h116.4h2v-2V2V0L120.4,0z"/>
	</g>
	<g>
		<g>
			<g>
				<path d="M199.3,48.1l-9,13.9h4l0.8-1.4h2.5l-0.2,1.4h3.4l2.6-13.9H199.3z M198.1,58h-1.6l2.2-3.5L198.1,58z"/>
			</g>
		</g>
		<g>
			<g>
				<path d="M146.1,48.1l-9,13.9h4l0.8-1.4h2.5l-0.2,1.4h3.4l2.6-13.9H146.1z M144.9,58h-1.6l2.2-3.5L144.9,58z"/>
			</g>
		</g>
		<g>
			<g>
				<path d="M192.8,53.2l-3.3,0l0.3-1c0,0,0.4-1-0.8-1h-0.7c0,0-1.2-0.1-1.7,1.5l-1.3,4.5c0,0-0.5,1.3,1.2,1.3s1.9-1.4,1.9-1.4h3.3
					l-0.9,3.1c0,0-0.7,1.7-2.4,1.7h-5.5c0,0-2.4,0.1-2-1.7l3.1-10.2c0,0,0.6-1.9,2.4-1.9l6.4,0c0,0,1.7,0,1,2.2L192.8,53.2z"/>
			</g>
		</g>
		<g>
			<g>
				<polygon points="183.9,48.1 179.8,61.9 176.3,61.9 180.4,48.1 				"/>
			</g>
		</g>
		<g>
			<g>
				<path d="M173.9,48.1l-4.2,0l-4.1,13.9h3.4l0.9-3.2l2.2,3.2h3.6L173,58c0,0,4.4-0.5,5.1-4.4C178.9,49.8,176,48.1,173.9,48.1z
					 M174.2,53.3c-0.6,2.1-3.3,1.8-3.3,1.8l1.1-3.7C172.1,51.4,174.8,51.2,174.2,53.3z"/>
			</g>
		</g>
		<g>
			<g>
				<polygon points="169.2,48.1 168.1,51.7 165,51.7 164.5,53.5 167.6,53.5 166.7,56.6 163.5,56.6 163,58.3 166.1,58.3 165,61.9 
					158.7,61.9 162.8,48.1 				"/>
			</g>
		</g>
		<g>
			<g>
				<polygon points="162.3,48.1 158.1,61.9 154.6,61.9 156.9,54.3 154.5,57.4 153.8,54.3 151.5,61.9 148,61.9 152.1,48.1 
					155.7,48.1 156.4,51 158.7,48.1 				"/>
			</g>
		</g>
		<g>
			<g>
				<path d="M165.1,45.4c-0.1,0-0.1,0-0.2,0v-5.9c0,0,0.1,0,0.2,0c0.6,0,1.2,0.2,1.7,0.6l0.2-0.3c-0.6-0.5-1.2-0.7-2-0.7
					c-1.8,0-3.2,1.5-3.2,3.3c0,1.8,1.4,3.3,3.2,3.3c0.7,0,1.4-0.2,2-0.7l-0.2-0.3C166.3,45.2,165.7,45.4,165.1,45.4z"/>
			</g>
		</g>
		<g>
			<g>
				<path d="M170.3,45.4c-0.1,0-0.1,0-0.2,0v-5.9c0,0,0.1,0,0.2,0c0.6,0,1.2,0.2,1.7,0.6l0.2-0.3c-0.6-0.5-1.2-0.7-2-0.7
					c-1.8,0-3.2,1.5-3.2,3.3c0,1.8,1.4,3.3,3.2,3.3c0.7,0,1.4-0.2,2-0.7l-0.2-0.3C171.5,45.2,170.9,45.4,170.3,45.4z"/>
			</g>
		</g>
		<g>
			<g>
				<rect x="158.5" y="39.4" width="2.7" height="6"/>
			</g>
		</g>
		<g>
			<g>
				<polygon points="182.5,45.1 182.5,39.4 179.8,39.4 179.8,45.5 181.3,45.5 181.3,45.5 183.9,45.5 183.9,45.1 				"/>
			</g>
		</g>
		<g>
			<g>
				<path d="M156.5,39.7L156.5,39.7L156.5,39.7c-0.4-0.2-0.9-0.3-1.5-0.3H154v0h-2.2v6l2.7,0v-1.9h0.6c1.5,0,2.7-0.5,2.7-2.1
					C157.8,40.6,157.3,40,156.5,39.7z M154.5,43.2v-3.4h0.6c0.1,0,0.2,0,0.3,0v3.4c-0.1,0-0.2,0-0.3,0H154.5z"/>
			</g>
		</g>
		<g>
			<g>
				<path d="M175.7,39.1c-1.8,0-3.3,1.5-3.3,3.3c0,1.8,1.5,3.3,3.3,3.3c1.8,0,3.3-1.5,3.3-3.3C179.1,40.6,177.6,39.1,175.7,39.1z
					 M175.3,45.4v-5.8c0.1,0,0.3,0,0.5,0c0.2,0,0.3,0,0.5,0v5.8c-0.1,0-0.3,0-0.5,0C175.6,45.4,175.4,45.4,175.3,45.4z"/>
			</g>
		</g>
		<g>
			<g>
				<path d="M187.1,39.1c-1.8,0-3.3,1.5-3.3,3.3c0,1.8,1.5,3.3,3.3,3.3c1.8,0,3.3-1.5,3.3-3.3C190.4,40.6,188.9,39.1,187.1,39.1z
					 M186.6,45.4v-5.8c0.1,0,0.3,0,0.5,0c0.2,0,0.3,0,0.5,0v5.8c-0.1,0-0.3,0-0.5,0C186.9,45.4,186.8,45.4,186.6,45.4z"/>
			</g>
		</g>
	</g>
	<g>
		<path d="M65.7,45.5c0.9,0,2-0.3,2.8-0.7l0.1-0.1v-0.7v-1.6l-0.4,0.4c-0.6,0.6-1.6,1-2.4,1c-2,0-3.6-1.7-3.6-3.7
			c0-2,1.7-3.7,3.6-3.7c0.9,0,1.8,0.4,2.4,1l0.4,0.4V36v-0.8l-0.1-0.1c-0.8-0.5-1.7-0.7-2.7-0.7c-3.1,0-5.6,2.4-5.6,5.6
			C60.2,43,62.6,45.5,65.7,45.5z"/>
		<polygon points="60.7,47.8 60.5,47.8 60.5,48 60.5,49.5 60.5,49.7 60.7,49.7 63.8,49.7 63.8,61.7 63.8,61.9 64,61.9 65.7,61.9 
			65.8,61.9 65.8,61.7 65.8,49.7 68.9,49.7 69.1,49.7 69.1,49.5 69.1,48 69.1,47.8 68.9,47.8 		"/>
		<rect x="70" y="34.7" width="1.7" height="10.6"/>
		<polygon points="75.2,38.6 82.7,45.5 82.7,34.7 80.9,34.7 80.9,41.3 73.4,34.5 73.4,45.3 75.2,45.3 		"/>
		<path d="M106.2,42.7h4.3l1.1,2.5h1.9l-5.2-10.8l-5.2,10.8h1.9L106.2,42.7z M108.3,38.3l1.4,2.7h-2.8L108.3,38.3z"/>
		<polygon points="94,39.4 96.9,45.5 99.9,39.4 101,45.3 102.7,45.3 100.5,34.5 96.9,41.8 93.4,34.5 91.2,45 91.1,45.3 92.9,45.3 		
			"/>
		<polygon points="90.4,43.6 86.2,43.6 86.2,40.3 90.2,40.3 90.2,38.7 86.2,38.7 86.2,36.3 90.4,36.3 90.4,34.7 84.5,34.7 
			84.5,45.3 90.4,45.3 		"/>
		<polygon points="110.4,47.8 110.2,47.8 110.2,48 110.2,61.7 110.2,61.9 110.4,61.9 112.1,61.9 112.3,61.9 112.3,61.7 112.3,48 
			112.3,47.8 112.1,47.8 		"/>
		<path d="M87.2,47.5c-1.9,0-3.8,0.8-5.2,2.2c-1.4,1.4-2.2,3.2-2.2,5.2c0,4.1,3.2,7.3,7.4,7.3c4.1,0,7.4-3.2,7.4-7.3
			c0-1.9-0.8-3.8-2.2-5.2C91,48.3,89.1,47.5,87.2,47.5z M87.2,60.2c-2.9,0-5.3-2.4-5.3-5.4c0-1.4,0.5-2.8,1.5-3.8
			c1-1,2.3-1.6,3.8-1.6c1.5,0,2.8,0.6,3.8,1.6c1,1,1.5,2.3,1.5,3.8C92.5,57.8,90.1,60.2,87.2,60.2z"/>
		<polygon points="96.3,47.8 96.1,47.8 96.1,48 96.1,61.7 96.1,61.9 96.3,61.9 98,61.9 98.2,61.9 98.2,61.7 98.2,48 98.2,47.8 
			98,47.8 		"/>
		<path d="M105.1,53.4l-1-0.4c-1.2-0.5-1.8-1.1-1.8-1.8c0-0.9,0.8-1.8,2.1-1.8c0.9,0,1.6,0.4,2.1,1.2l0.1,0.1l0.1-0.1l1.4-0.8
			l0.1-0.1l-0.1-0.1c-0.8-1.4-2.1-2.2-3.7-2.2c-2,0-4.2,1.3-4.2,3.7c0,2,1.6,3,3.1,3.6l0.9,0.4c1.1,0.5,2.3,1.1,2.3,2.4
			c0,1.4-1,2.5-2.4,2.5c-0.7,0-1.4-0.3-1.8-0.7c-0.4-0.4-0.7-1-0.7-1.7l0-0.2l-0.2,0L99.8,58l-0.2,0l0,0.2c0.1,1.1,0.7,2.1,1.5,2.9
			c0.8,0.7,1.9,1.1,3,1.1c2.6,0,4.6-1.9,4.6-4.5C108.6,55.2,106.9,54.1,105.1,53.4z"/>
		<path d="M75.4,56c2.2-0.4,3.5-1.9,3.5-4.1c0-1.4-0.4-2.4-1.3-3.1c-0.9-0.7-2.4-1.1-4.5-1.1h-2.5h-0.2V48v13.8v0.2h0.2h1.7h0.2
			v-0.2v-5.6h0.6l4,5.8l0.1,0.1h0.1h2.1h0.3l-0.2-0.3L75.4,56z M72.6,54.3v-4.6h0.8c1.8,0,3.6,0.3,3.6,2.2c0,1.6-1.1,2.4-3.5,2.4
			H72.6z"/>
	</g>
</g>
<g>
</g>
<g>
</g>
<g>
</g>
<g>
</g>
<g>
</g>
<g>
</g>
</svg>
