<svg xmlns="http://www.w3.org/2000/svg" viewBox="0 0 495.26 313.55"><defs><style>.cls-1{fill:#d9da09;}.cls-2{fill:#fff;}</style></defs><g id="Layer_2" data-name="Layer 2"><g id="Layer_1-2" data-name="Layer 1"><g id="Layer_2-2" data-name="Layer 2"><g id="Livello_1" data-name="Livello 1"><path class="cls-1" d="M242.31,28.39a12.7,12.7,0,0,0,1.63.07,1.15,1.15,0,0,0,.74-.45,23.72,23.72,0,0,1,8.76-8.72,6.22,6.22,0,0,1,1.35-.59c.49-.15.79.13.64.61a5.08,5.08,0,0,1-.64,1.4,24.27,24.27,0,0,1-8.37,7.87l-.37.25c1.1.21,2,.33,3,.57,1.11.3,1.69-.14,2.31-1.07a20.24,20.24,0,0,1,8.3-6.84,4.1,4.1,0,0,1,.88-.4,2.45,2.45,0,0,1,.81.07,2,2,0,0,1-.14.73A24.28,24.28,0,0,1,256.3,27c-1.14.95-2.32,1.86-3.62,2.91.55.15,1,.31,1.41.39a6.67,6.67,0,0,0,1.41.13,1,1,0,0,0,.68-.33,30.67,30.67,0,0,1,5.31-5.49,19.66,19.66,0,0,1,5-2.65.84.84,0,0,1,.44-.07,4,4,0,0,1,.69.24c-.09.22-.12.5-.28.64-1.28,1.2-2.53,2.43-3.88,3.55-1.84,1.55-3.76,3-5.73,4.58.79.11,1.6.18,2.39.34a1.85,1.85,0,0,0,2.15-1,13.32,13.32,0,0,1,3.56-3.54,22.39,22.39,0,0,1,5.76-3.7c.44-.18.89-.31,1.39-.49.48,1.15-.37,2-.72,3.06,2-1.71,3.81-3.36,6.31-4.3,0,.37.16.71.06.94a13,13,0,0,1-1.32,2.63c-1.61,2.14-3.31,4.21-5,6.28a19.45,19.45,0,0,1-1.47,1.4c.94.12,1.88.19,2.83.22a2.07,2.07,0,0,0,1.72-1c2.61-4.23,6.68-6.7,10.86-9a17.47,17.47,0,0,1,1.94-.84,3.1,3.1,0,0,1,.68-.1,1.3,1.3,0,0,1-.41,1.56c-1.61,1.4-3.24,2.79-4.85,4.2-.66.59-1.29,1.22-1.93,1.82l.07.21c.56-.11,1.13-.18,1.68-.33,2.13-.58,4.26-1.19,6.39-1.79a1.64,1.64,0,0,1,.44-.09H291c-.08.28-.06.66-.24.82a16.8,16.8,0,0,1-2.39,1.8A40.51,40.51,0,0,1,280,33.28L277.6,34c.81.2,1.47.32,2.09.53,1.55.54,3.1,1.12,4.65,1.7.36.13.72.39.51.8-.1.21-.5.32-.78.36A15.43,15.43,0,0,1,273.66,35a10.91,10.91,0,0,0-4.46-1.34,4,4,0,0,0-1.29,0c.52.39,1,.78,1.55,1.15,2.23,1.6,4.46,3.18,6.68,4.79a2.21,2.21,0,0,1,.44.64,2.42,2.42,0,0,1-.75.18,12.76,12.76,0,0,1-8.67-4.89,5.88,5.88,0,0,0-3.38-2.46c-1.31-.24-2.64-.34-4-.5l-.15.15a4,4,0,0,0,.59.89c1.32,1.08,2.68,2.11,4,3.18,1,.84,2.06,1.72,3.07,2.59a1.49,1.49,0,0,1,.41.49c.25.49.05.88-.48.81a6.36,6.36,0,0,1-2.14-.58A15.65,15.65,0,0,1,261,36.5c-1.08-1.24-2.07-2.55-3.14-3.8a1.5,1.5,0,0,0-.82-.39c-1.06-.18-2.13-.32-3.2-.44a2.28,2.28,0,0,0-.69.13,2.29,2.29,0,0,0,.31.74c.57.53,1.19,1,1.79,1.5,1.5,1.26,3.05,2.46,4.47,3.81a10.14,10.14,0,0,1,1.44,2.27,1.69,1.69,0,0,1,.06.55c-.21,0-.45.11-.61,0a12.11,12.11,0,0,1-2.64-1.45,27.11,27.11,0,0,1-6.67-7.6.55.55,0,0,0-.2-.25,7.47,7.47,0,0,0-3.24-.78,11.51,11.51,0,0,0,2.65,3.12c1.79,1.68,3.56,3.35,4.34,5.77.08.31.14.62.19.93a6.72,6.72,0,0,1-.75-.4,23.84,23.84,0,0,1-8-9c-.5-.95-.6-1-1.86-.89.38.56.7,1.08,1.07,1.57A18.23,18.23,0,0,1,248.67,40c.14.83.26,1.66.34,2.5a1.75,1.75,0,0,1-.24.6c-.16-.09-.38-.15-.46-.28-1.4-2.54-2.84-5.07-4.14-7.66a10.3,10.3,0,0,1-1.07-4.49c0-.38-.16-.58-.52-.6-.71,0-1.42-.06-2.13-.08s-1.64,0-2.46,0c-.22,0-.58.09-.6.19a1,1,0,0,0,.13.77,9.35,9.35,0,0,0,1.3,1.44,24.74,24.74,0,0,1,6.92,10.23,1.85,1.85,0,0,1,0,.81,2.35,2.35,0,0,1-.73-.21,27.49,27.49,0,0,1-6.57-7.36c-1.07-1.67-2.07-3.4-3.07-5.13a1.19,1.19,0,0,0-.88-.64,13.31,13.31,0,0,0-6.39.42,3.63,3.63,0,0,0,.6.85,11.13,11.13,0,0,0,1.8,1.25A24,24,0,0,1,237,37.07a17.42,17.42,0,0,1,1.28,1.54,4.8,4.8,0,0,1,.33.73c-.66-.11-1.16-.16-1.65-.27A15.31,15.31,0,0,1,230,35.24c-1.26-1.17-2.42-2.46-3.58-3.73a1.1,1.1,0,0,0-1.25-.38c-.6.19-1.21.32-1.78.56a27.59,27.59,0,0,0-10.31,7.53c-.57.65-1.12,1.31-1.68,2a2.26,2.26,0,0,1-2.83.31,3.18,3.18,0,0,1-1.24-3.25,6.62,6.62,0,0,1,4.59-5.45c3-1.14,6-2.06,9.1-3,1.88-.58,3.81-1,5.84-1.56-.42-.51-.77-1-1.17-1.42a46,46,0,0,1-6.23-8.57A21.77,21.77,0,0,1,218,14.65a1,1,0,0,1,.18-.8c.1-.11.53,0,.73.08,4.58,2.88,7.92,6.73,9.33,12.07.17.64.25,1.31.41,2.2.36-.32.68-.5.82-.77a16.35,16.35,0,0,0,.8-2,18.87,18.87,0,0,1,9.43-11.16c.41-.21.79-.36,1.2,0a6.64,6.64,0,0,1-1.22,2.86c-1.05,1.64-2.17,3.22-3.26,4.83-.13.19-.24.39-.36.58l.11.13a4.94,4.94,0,0,0,.49-.3c2-1.59,4-3.21,6-4.76a4.54,4.54,0,0,1,1.61-.7c.34-.1.58.09.5.57a5.66,5.66,0,0,1-1.55,2.78,49.64,49.64,0,0,1-7.45,6.82c-.19.14-.35.31-.69.61,1,.14,1.82.28,2.64.35a19,19,0,0,0,2,0,.64.64,0,0,0,.73-.52,25.35,25.35,0,0,1,3.76-7.31,8.67,8.67,0,0,1,3.07-2.73c.64-.33,1-.17.91.54a7.06,7.06,0,0,1-.47,1.86A32.81,32.81,0,0,1,243,27.47Zm21.71,3c1.34.18,2.77.39,4.21.55,1,.11,1,.07,1.28-1,.05-.19.06-.38.11-.57.19-.69.37-1.39.6-2.07a6.12,6.12,0,0,1,.49-.91Zm-30.08-6.14a.86.86,0,0,0-1.21.16v0a17.12,17.12,0,0,0-1.35,1.73c-.1.14-.06.38-.08.58.22,0,.48.05.64-.06a5,5,0,0,0,2-2.39ZM276,32.79l.13.2,3-1.58v-.27c-.25-.16-.48-.43-.74-.46A3.4,3.4,0,0,0,276,32.83Z"/><path class="cls-1" d="M264,31.43l6.69-4a6.12,6.12,0,0,0-.49.91c-.23.68-.41,1.38-.6,2.07-.05.19-.06.38-.11.57-.25,1-.27,1.09-1.28,1C266.79,31.82,265.37,31.61,264,31.43Z"/><path class="cls-1" d="M247.63,0C216.3,0,190.9,13.89,190.9,31s25.4,31,56.73,31,56.74-13.84,56.74-31S279,0,247.63,0Zm0,60.69C218,60.69,194,47.41,194,31s24-29.66,53.6-29.66,53.6,13.28,53.6,29.66S277.23,60.69,247.63,60.69Z"/><path class="cls-1" d="M201.24,77.8h-1.87v4.3h-1.91V71.32h3.78c2.41,0,4.45.09,4.45,3.21S203.69,77.8,201.24,77.8Zm1.86-4.64a6,6,0,0,0-1.89-.15h-1.84v3.08h1.84a6.68,6.68,0,0,0,1.89-.15c.3-.13.68-.43.68-1.37s-.41-1.28-.68-1.41Z"/><path class="cls-1" d="M213.5,82.1l-1-2.75h-4.2l-1,2.75h-2l4.17-10.78h2l4.14,10.78Zm-3.13-8.66-1.52,4.26h3Z"/><path class="cls-1" d="M217,82.1V71.32h1.9v9.07h5.36V82.1Z"/><path class="cls-1" d="M234.62,82.1V73.73l-2.76,8.37H230l-2.73-8.37V82.1h-1.75V71.32h2.53L231,79.9l2.91-8.6h2.48V82.1Z"/><path class="cls-1" d="M245.94,82.1l-1-2.75h-4.21l-1,2.75h-2l4.17-10.78h2L248,82.1Zm-3.09-8.66-1.48,4.26h3Z"/><path class="cls-1" d="M260.69,80.65c-.78,1.15-1.94,1.45-3.95,1.45h-4V71.32h4c2,0,3.16.32,3.94,1.47.57.84.71,1.81.71,3.93S261.25,79.81,260.69,80.65ZM256.63,73h-2v7.38h2c2.17,0,2.83-.11,2.83-3.67S258.8,73,256.63,73Z"/><path class="cls-1" d="M263.55,74.27v-3h1.7v3Z"/><path class="cls-1" d="M271.8,82.23c-4.4,0-4.45-2.37-4.45-5.53s0-5.5,4.43-5.5,4.45,2.32,4.45,5.49C276.23,80.1,276,82.23,271.8,82.23Zm0-9.3c-2.2,0-2.52.68-2.52,3.79s.32,3.77,2.52,3.77,2.57-.68,2.57-3.79-.39-3.77-2.59-3.77Z"/><path class="cls-1" d="M284.86,82.1V79.31c0-1.64,0-1.59-2.63-1.59h-1.86V82.1h-1.91V71.32h3.78c2.45,0,4.45.09,4.45,3.1,0,1.3-.26,2.07-1.05,2.4,1.2.35,1.05,1.76,1.05,2.65V82.1Zm-.34-8.75c-.26-.24-.35-.34-2.28-.34h-1.87v3h2a8.41,8.41,0,0,0,1.94-.13c.24-.12.55-.42.55-1.38A1.59,1.59,0,0,0,284.52,73.35Z"/><path class="cls-1" d="M293.37,82.23c-4.4,0-4.45-2.37-4.45-5.53s0-5.5,4.43-5.5,4.45,2.32,4.45,5.49C297.8,80.1,297.59,82.23,293.37,82.23Zm0-9.3c-2.2,0-2.52.68-2.52,3.79s.32,3.77,2.52,3.77,2.54-.68,2.54-3.79S295.55,72.93,293.37,72.93Z"/><path class="cls-1" d="M198.71,87.85v1.78h3.4v1.1h-3.4v3h-1.25v-7h4.74v1.11Z"/><path class="cls-1" d="M203.57,93.78v-7h4.85v1.11H204.8v1.78h3.57v1.1h-3.52V92.7h3.62v1.12Z"/><path class="cls-1" d="M212.48,93.86c-1.7,0-2.83-.42-2.83-2h1.24c0,.7.34.93,1.61.93s1.58-.34,1.58-1.11-.26-.78-.79-.83c-1.55-.11-3.64.32-3.64-2,0-1.64,1-2.15,2.8-2.15s2.8.44,2.8,2H214c0-.83-.53-.93-1.6-.93-1.4,0-1.54.27-1.54,1s.3.73.79.78c1.56.12,3.66-.33,3.65,2C215.37,93.17,214.37,93.86,212.48,93.86Z"/><path class="cls-1" d="M219.31,87.85v5.93h-1.25V87.85h-2.14V86.74h5.53v1.11Z"/><path class="cls-1" d="M222.44,93.78v-7h1.25v7Z"/><path class="cls-1" d="M228.37,93.78h-1.23l-2.63-7h1.33l1.94,5.47,1.93-5.47H231Z"/><path class="cls-1" d="M235.92,93.78l-.66-1.8h-2.74l-.65,1.8h-1.3l2.73-7h1.27l2.71,7Zm-2-5.66-1,2.79h2Z"/><path class="cls-1" d="M238.16,93.78v-7h1.21V92.7h3.5v1.12Z"/><path class="cls-1" d="M251.37,92.83c-.51.75-1.27,1-2.58,1h-2.61v-7h2.6c1.31,0,2.07.21,2.58,1a4.29,4.29,0,0,1,.47,2.56A4.3,4.3,0,0,1,251.37,92.83Zm-2.65-5h-1.35v4.81h1.33c1.42,0,1.85-.07,1.85-2.4s-.44-2.39-1.86-2.39Z"/><path class="cls-1" d="M253.27,93.78v-7h1.25v7Z"/><path class="cls-1" d="M262.77,88.71c0-.71-.3-.92-1.51-.92-1.42,0-1.64.46-1.64,2.47s.21,2.46,1.62,2.46c1.22,0,1.51-.2,1.51-.9H264c0,1.59-1,2-2.64,2-3,0-3-1.59-3-3.61s0-3.59,3-3.59c1.61,0,2.64.46,2.64,2Z"/><path class="cls-1" d="M269.86,93.78l-.65-1.8h-2.75l-.64,1.8h-1.3l2.72-7h1.28l2.7,7Zm-2-5.66-1,2.79h2Z"/><path class="cls-1" d="M276.2,93.78l-2.93-5.06v5.06h-1.16v-7h1.26l2.93,5v-5h1.16v7Z"/><path class="cls-1" d="M283.16,93.78l-2.92-5.06v5.06h-1.16v-7h1.29l2.94,5v-5h1.16v7Z"/><path class="cls-1" d="M286.05,93.78v-7h4.84v1.11h-3.62v1.78h3.52v1.1h-3.52V92.7h3.62v1.12Z"/><path class="cls-1" d="M295,93.86c-1.7,0-2.83-.42-2.83-2h1.25c0,.7.34.93,1.61.93s1.58-.34,1.58-1.11-.26-.78-.79-.83c-1.55-.11-3.64.32-3.64-2,0-1.64.95-2.15,2.81-2.15,1.7,0,2.79.44,2.79,2h-1.22c0-.83-.53-.93-1.59-.93-1.41,0-1.55.27-1.55,1s.3.73.8.78c1.55.12,3.65-.33,3.64,2C297.79,93.17,296.86,93.86,295,93.86Z"/><rect class="cls-1" x="98.99" y="134.16" width="31.42" height="82.39"/><polygon class="cls-1" points="30.83 134.16 0 134.16 0 151.65 30.83 151.65 30.83 216.56 62.24 216.56 62.24 151.65 93.06 151.65 93.06 134.16 62.24 134.16 30.83 134.16"/><polygon class="cls-1" points="376.85 171.32 354.85 134.16 347.4 134.16 335.58 134.16 315.98 134.16 315.98 216.56 347.4 216.56 347.4 176.45 371.03 216.56 376.85 216.56 407.94 216.56 407.94 134.16 376.85 134.16 376.85 171.32"/><polygon class="cls-1" points="229.7 151.65 229.7 134.16 198.87 134.16 167.46 134.16 136.63 134.16 136.63 151.65 167.46 151.65 167.46 216.56 198.87 216.56 198.87 151.65 229.7 151.65"/><polygon class="cls-1" points="495.26 151.65 495.26 134.16 447.24 134.16 422.77 134.16 415.83 134.16 415.83 216.56 422.77 216.56 447.24 216.56 495.26 216.56 495.26 196.72 447.24 196.72 447.24 182.66 490.95 182.66 490.95 162.82 447.24 162.82 447.24 151.65 495.26 151.65"/><path class="cls-1" d="M273.69,134.16H244.1l-19.35,82.4h31.18l3.12-14.48h20.47l3.12,14.48h31.19l-19.35-82.4ZM263.5,181.45l5.79-26.87,5.79,26.87Z"/><path class="cls-2" d="M61.48,249.68h2.07v4.38c0,.75,0,2,1.94,2s1.93-1.26,1.93-2v-4.38h2.07v4.89c0,.86-.11,2.95-4,2.95s-4-2.09-4-2.95Z"/><path class="cls-2" d="M80.07,249.68h2v7.62H79.82L75.66,252h0v5.31h-2v-7.62h2.4l4,5.32h0Z"/><path class="cls-2" d="M93,249.68h6.82v1.45H95.11v1.67h4.44v1.45H95.11v3.05H93Z"/><path class="cls-2" d="M103.52,249.68h2.07v7.62h-2.07Z"/><path class="cls-2" d="M109.82,249.68h2.08v6.11h4.64v1.51h-6.72Z"/><path class="cls-2" d="M127.88,249.68h3.05v7.62h-2v-6.1h0l-2.41,6.1h-1.73l-2.42-6.1h0v6.1h-2v-7.62h3l2.26,5.49Z"/><path class="cls-2" d="M141.89,249.68h4.75c2.62,0,3.75,1.52,3.75,3.81s-1.17,3.81-3.57,3.81h-4.93Zm2.07,6.17h2.31c1.37,0,2-.82,2-2.43,0-1.41-.59-2.29-2.17-2.29H144Z"/><path class="cls-2" d="M154.37,249.68h2.07v7.62h-2.07Z"/><path class="cls-2" d="M177.93,245.1h3.31v7.45c0,2.11-.1,5.1-4.92,5.1-2.84,0-5.47-.74-5.47-4.21v-.77h3.32v.86a1.73,1.73,0,0,0,1.55,1.89H176c1.73,0,2-1,2-2.47Z"/><path class="cls-2" d="M187.87,245.1h3.32v7c0,1.2.05,3.21,3.09,3.21s3.09-2,3.09-3.21v-7h3.32v7.83c0,1.37-.17,4.72-6.41,4.72s-6.41-3.35-6.41-4.72Z"/><path class="cls-2" d="M207.37,245.1h3.32v9.78h7.43v2.42H207.37Z"/><path class="cls-2" d="M224.11,245.1h3.31v12.2h-3.31Z"/><path class="cls-2" d="M243,254.79h-5.59l-1,2.51H232.8l5.36-12.2h4l5.37,12.2H244Zm-2.81-7.06-1.91,4.84h3.83Z"/><path class="cls-2" d="M263.65,245.1h7.61c4.18,0,6,2.43,6,6.1s-1.88,6.1-5.71,6.1h-7.9ZM267,255h3.69c2.19,0,3.18-1.31,3.18-3.9,0-2.25-1-3.65-3.49-3.65H267Z"/><path class="cls-2" d="M283.46,245.1h3.32v7c0,1.2,0,3.21,3.09,3.21s3.09-2,3.09-3.21v-7h3.32v7.83c0,1.37-.17,4.72-6.41,4.72s-6.41-3.35-6.41-4.72Z"/><path class="cls-2" d="M313.22,249.72a3.25,3.25,0,0,0-3.49-2.63c-3.15,0-3.81,2.46-3.81,4.11s.66,4.12,3.81,4.12a3.25,3.25,0,0,0,3.49-2.7h3.6c-.41,3.56-3.33,5-7.21,5-4.44,0-7.21-1.92-7.21-6.45s2.77-6.44,7.21-6.44c2.94,0,6.68.75,7.18,5Z"/><path class="cls-2" d="M329.76,244.76c6.56,0,7.59,3.9,7.59,6.44s-1,6.45-7.59,6.45-7.59-3.9-7.59-6.45S323.2,244.76,329.76,244.76Zm0,10.56a4.12,4.12,0,1,0-4.07-4.17v0a3.86,3.86,0,0,0,3.56,4.12,4.34,4.34,0,0,0,.51,0Z"/><path class="cls-2" d="M343.29,245.1h3.32v7c0,1.2.05,3.21,3.09,3.21s3.1-2,3.1-3.21v-7h3.31v7.83c0,1.37-.17,4.72-6.41,4.72s-6.41-3.35-6.41-4.72Z"/><path class="cls-2" d="M362.74,245.1h8.87c3.39,0,4,2.07,4,3.32a2.78,2.78,0,0,1-2,2.94h0c1.45.22,1.67,2.07,1.67,3.27a4.37,4.37,0,0,0,.64,2.64h-3.63a4.38,4.38,0,0,1-.32-2.34c0-1.7-.74-2.13-1.76-2.13h-4.12v4.47h-3.32Zm3.32,5.4h4.39a1.48,1.48,0,0,0,1.59-1.36V249c0-1.22-1-1.52-1.76-1.52h-4.22Z"/><path class="cls-2" d="M392,245.1h3.21v12.2h-3.61L385,248.8h0v8.5h-3.21V245.1h3.84l6.41,8.51h0Z"/><path class="cls-2" d="M410.78,254.79h-5.6l-1,2.51h-3.57L406,245.1h4l5.4,12.2H411.8Zm-2.8-7.06-1.91,4.84h3.83Z"/><path class="cls-2" d="M420.58,245.1h3.31v7c0,1.2.05,3.21,3.1,3.21s3.09-2,3.09-3.21v-7h3.29v7.83c0,1.37-.18,4.72-6.41,4.72s-6.41-3.35-6.41-4.72Z"/><polygon class="cls-2" points="339.05 296.91 335.96 305.25 332.78 296.91 331.39 296.91 328.44 309.28 330.96 309.28 332.54 302.63 335.5 309.46 336.43 309.46 339.36 302.63 340.89 309.28 343.41 309.28 340.41 296.91 339.05 296.91"/><path class="cls-2" d="M363.69,305.86v-5.67c0-1.19-.53-1.79-1.59-1.79a1.65,1.65,0,0,0-.91.28,1.59,1.59,0,0,0-.62.64v6.54h-2.11v-6a1.37,1.37,0,0,0-.42-1.06,1.56,1.56,0,0,0-1.16-.4,1.62,1.62,0,0,0-.87.29,2.19,2.19,0,0,0-.68.64v6.53h-2.11v-9h1.45l.43.78a3,3,0,0,1,2.27-1,3.52,3.52,0,0,1,2.72,1,2.56,2.56,0,0,1,1.11-.71,3.81,3.81,0,0,1,1.42-.27,3.11,3.11,0,0,1,2.35.87,3.24,3.24,0,0,1,.84,2.37v6Z"/><path class="cls-2" d="M369.69,301.3q0,3,2.16,3a1.86,1.86,0,0,0,1.57-.77,3.63,3.63,0,0,0,.58-2.2c0-1.95-.72-2.92-2.15-2.92a1.89,1.89,0,0,0-1.58.77,3.48,3.48,0,0,0-.58,2.15m-2.19,0a4.82,4.82,0,0,1,1.19-3.36,4.6,4.6,0,0,1,6.36-.05,4.87,4.87,0,0,1,1.14,3.41,5,5,0,0,1-1.16,3.44,4.14,4.14,0,0,1-3.18,1.27,4,4,0,0,1-3.21-1.29,5,5,0,0,1-1.14-3.42"/><polygon class="cls-2" points="381.62 306.01 380.86 306.01 376.78 296.82 379.1 296.82 381.25 302.33 383.55 296.82 385.79 296.82 381.62 306.01"/><path class="cls-2" d="M388.66,293.31a1.23,1.23,0,1,1-.87.36,1.15,1.15,0,0,1,.87-.36m-1.1,12.55v-7.31h-1.19v-1.73h3.3v9Z"/><path class="cls-2" d="M393.85,300.39h4.43a2,2,0,0,0-2-2h-.2a2.18,2.18,0,0,0-2.24,2m6.37,1.59h-6.47a2.27,2.27,0,0,0,.75,1.67,2.67,2.67,0,0,0,1.84.6,3,3,0,0,0,2.21-.76l.82,1.61A5.19,5.19,0,0,1,396,306a4.43,4.43,0,0,1-3.28-1.21,4.63,4.63,0,0,1-1.2-3.38,4.71,4.71,0,0,1,1.32-3.46,4.65,4.65,0,0,1,6.33-.15,4,4,0,0,1,1.19,3,5.91,5.91,0,0,1-.18,1.18"/><path class="cls-2" d="M401.52,305.25l.76-1.68a3.33,3.33,0,0,0,2.14.75q1.23,0,1.23-.87a1,1,0,0,0-.37-.84,5.74,5.74,0,0,0-1.44-.78c-1.56-.64-2.34-1.55-2.34-2.71a2.16,2.16,0,0,1,.89-1.83,3.83,3.83,0,0,1,2.3-.65,5.81,5.81,0,0,1,2.65.63l-.61,1.64a2.91,2.91,0,0,0-1.93-.58q-1.11,0-1.11.87a.79.79,0,0,0,.36.62,7,7,0,0,0,1.56.75,3.94,3.94,0,0,1,1.76,1.13,2.53,2.53,0,0,1,.52,1.61,2.36,2.36,0,0,1-.93,2,4,4,0,0,1-2.59.69,5.86,5.86,0,0,1-1.45-.15,7,7,0,0,1-1.4-.61"/><path class="cls-2" d="M409.85,304.76a1.5,1.5,0,0,1,1.48-1.52h0a1.52,1.52,0,0,1,1.53,1.51,1.54,1.54,0,0,1-.45,1.09,1.42,1.42,0,0,1-1.08.45,1.46,1.46,0,0,1-1.08-.45,1.48,1.48,0,0,1-.44-1.08"/><path class="cls-2" d="M417.55,293.31a1.21,1.21,0,1,1-.87.36,1.15,1.15,0,0,1,.87-.36m-1.1,12.55v-7.31h-1.16v-1.73h3.3v9Z"/><path class="cls-2" d="M421.37,298.5h-1.06v-1.68h1.06V295l2.11-.77v2.62H426v1.68h-2.5v4a2.33,2.33,0,0,0,.31,1.37,1.24,1.24,0,0,0,1.07.4,2.74,2.74,0,0,0,1.42-.4v1.94a7.07,7.07,0,0,1-2.1.25,2.77,2.77,0,0,1-2.08-.76,3,3,0,0,1-.73-2.18Z"/><rect class="cls-2" x="353.19" y="307.65" width="0.42" height="2.02"/><polygon class="cls-2" points="354.49 307.65 354.49 309.67 355.99 309.67 355.99 309.35 354.92 309.35 354.92 307.65 354.49 307.65"/><path class="cls-2" d="M359.73,307.76l-.17.3a.66.66,0,0,0-.45-.13.62.62,0,0,0-.48.22.84.84,0,0,0,0,1,.67.67,0,0,0,.47.19.68.68,0,0,0,.52-.2l.2.28a1.07,1.07,0,0,1-.75.24,1,1,0,0,1-.69-1.75,1.08,1.08,0,0,1,.78-.3,1.19,1.19,0,0,1,.64.15"/><rect class="cls-2" x="360.54" y="307.65" width="0.42" height="2.02"/><polygon class="cls-2" points="363.17 307.65 363.17 308.87 362.05 307.65 361.85 307.65 361.85 309.67 362.25 309.67 362.25 308.41 363.4 309.7 363.57 309.7 363.57 307.65 363.17 307.65"/><polygon class="cls-2" points="364.45 307.65 364.45 309.67 365.95 309.67 365.95 309.35 364.87 309.35 364.87 308.74 365.64 308.74 365.64 308.44 364.87 308.44 364.87 307.97 365.95 307.97 365.95 307.65 364.45 307.65"/><polygon class="cls-2" points="368.24 307.65 367.73 309.01 367.22 307.65 367 307.65 366.52 309.67 366.93 309.67 367.19 308.58 367.66 309.7 367.81 309.7 368.29 308.58 368.53 309.67 368.94 309.67 368.46 307.65 368.24 307.65"/><path class="cls-2" d="M370.37,308.23l.28.75h-.57Zm-.09-.62-.95,2.06h.47l.16-.41h.81l.17.41h.47l-1-2.06Z"/><path class="cls-2" d="M373.89,308v1.38h.22a.63.63,0,0,0,.5-.2.78.78,0,0,0,.18-.55c0-.43-.24-.65-.71-.65h-.19m.1,1.71h-.52v-2h.63a1.2,1.2,0,0,1,.82.26.86.86,0,0,1,.31.69c0,.72-.42,1.09-1.24,1.09"/><path class="cls-2" d="M376.79,308.23l.28.75h-.56Zm-.09-.62-.94,2.06h.46l.17-.41h.81l.17.41h.46l-1-2.06Z"/><polygon class="cls-2" points="378.48 307.65 378.48 309.67 379.97 309.67 379.97 309.35 378.9 309.35 378.9 307.65 378.48 307.65"/><polygon class="cls-2" points="380.7 307.65 380.7 309.67 382.2 309.67 382.2 309.35 381.12 309.35 381.12 307.65 380.7 307.65"/><path class="cls-2" d="M383.73,308.23l.28.75h-.57Zm-.09-.62-.95,2.06h.47l.16-.41h.81l.18.41h.46l-.95-2.06Z"/><path class="cls-2" d="M387.23,308v.64h.14a.88.88,0,0,0,.42-.08.29.29,0,0,0,.13-.27c0-.2-.19-.31-.59-.31h-.13m0,1v.75h-.42v-2h.49a1.67,1.67,0,0,1,.82.15.49.49,0,0,1,.26.46c0,.46-.33.69-1,.69h-.19"/><path class="cls-2" d="M390,308.23l.28.75h-.57Zm-.09-.62-1,2.06h.51l.16-.41h.84l.17.41H391l-1-2.06Z"/><path class="cls-2" d="M392.07,308v.56h.18a.82.82,0,0,0,.38-.06.26.26,0,0,0,.13-.25.22.22,0,0,0-.14-.21,1,1,0,0,0-.41-.06h-.14m.9,1.71-.63-.83h-.27v.84h-.43v-2h.65c.6,0,.9.2.9.59a.5.5,0,0,1-.12.33.69.69,0,0,1-.32.21l.71.91Z"/><polygon class="cls-2" points="393.85 307.65 393.85 307.97 394.6 307.97 394.6 309.67 395.02 309.67 395.02 307.97 395.81 307.97 395.81 307.65 393.85 307.65"/><polygon class="cls-2" points="396.47 307.65 396.47 309.67 397.97 309.67 397.97 309.35 396.89 309.35 396.89 308.74 397.66 308.74 397.66 308.44 396.89 308.44 396.89 307.97 397.97 307.97 397.97 307.65 396.47 307.65"/><path class="cls-2" d="M400.56,308v1.38h.22a.63.63,0,0,0,.5-.2.78.78,0,0,0,.18-.55c0-.43-.23-.65-.71-.65h-.19m.11,1.71h-.53v-2h.63a1.2,1.2,0,0,1,.82.26.83.83,0,0,1,.31.69c0,.72-.41,1.09-1.23,1.09"/><polygon class="cls-2" points="402.66 307.65 402.66 309.67 404.16 309.67 404.16 309.35 403.08 309.35 403.08 308.74 403.85 308.74 403.85 308.44 403.08 308.44 403.08 307.97 404.16 307.97 404.16 307.65 402.66 307.65"/><polygon class="cls-2" points="404.94 307.65 404.94 309.67 406.43 309.67 406.43 309.35 405.36 309.35 405.36 307.65 404.94 307.65"/><path class="cls-2" d="M409,308v.64h.16a.89.89,0,0,0,.43-.08.29.29,0,0,0,.13-.27c0-.2-.2-.31-.6-.31H409m0,1v.75h-.43v-2h.5a1.67,1.67,0,0,1,.82.15.49.49,0,0,1,.26.46c0,.46-.33.69-1,.69h-.19"/><path class="cls-2" d="M410.89,307.65h.42V309a.32.32,0,0,0,.12.26.42.42,0,0,0,.32.11.62.62,0,0,0,.35-.1.36.36,0,0,0,.12-.28v-1.35h.43V309a.56.56,0,0,1-.25.49,1.29,1.29,0,0,1-1.29,0,.6.6,0,0,1-.22-.5Z"/><path class="cls-2" d="M414,308.7v.67h.21a.78.78,0,0,0,.4-.08.29.29,0,0,0,.13-.27.27.27,0,0,0-.12-.25.66.66,0,0,0-.41-.08H414m0-.76v.48h.2c.27,0,.41-.09.41-.27s-.12-.23-.37-.23H414m.3,1.73h-.72v-2h.67a1,1,0,0,1,.57.13.42.42,0,0,1,.21.39.44.44,0,0,1-.29.38.55.55,0,0,1,.44.54.52.52,0,0,1-.25.44,1.16,1.16,0,0,1-.63.16"/><path class="cls-2" d="M416.31,308.7v.67h.21a.84.84,0,0,0,.41-.08.31.31,0,0,0,.13-.27.27.27,0,0,0-.12-.25.69.69,0,0,0-.42-.08h-.21m0-.76v.48h.21c.27,0,.4-.09.4-.27s-.12-.23-.37-.23h-.24m.31,1.73h-.73v-2h.67a1.08,1.08,0,0,1,.58.13.42.42,0,0,1-.09.77.55.55,0,0,1,.44.54.51.51,0,0,1-.24.44,1.26,1.26,0,0,1-.63.16"/><polygon class="cls-2" points="418.25 307.65 418.25 309.67 419.75 309.67 419.75 309.35 418.68 309.35 418.68 307.65 418.25 307.65"/><rect class="cls-2" x="420.49" y="307.65" width="0.42" height="2.02"/><path class="cls-2" d="M423.42,307.76l-.17.3a.72.72,0,0,0-.45-.13.64.64,0,0,0-.49.22.8.8,0,0,0-.19.53.73.73,0,0,0,.18.51.59.59,0,0,0,.47.19.68.68,0,0,0,.52-.2l.19.28a1.07,1.07,0,0,1-.75.24,1,1,0,0,1-1-1,1,1,0,0,1,.3-.75,1.08,1.08,0,0,1,.78-.3,1.22,1.22,0,0,1,.65.15"/><path class="cls-2" d="M424.54,308.64a.93.93,0,0,0,.14.54.47.47,0,0,0,.41.2.61.61,0,0,0,.48-.19.84.84,0,0,0,.17-.55c0-.48-.21-.71-.62-.71a.5.5,0,0,0-.43.19.8.8,0,0,0-.15.52m-.43,0a1,1,0,0,1,.27-.73,1,1,0,0,1,.74-.3,1.05,1.05,0,0,1,.78.27,1.2,1.2,0,0,1,0,1.53,1.07,1.07,0,0,1-.8.29.92.92,0,0,1-.73-.29,1.09,1.09,0,0,1-.25-.77"/><path class="cls-2" d="M341.16,297h2.59l2.66,6.26,3-6.26H352l-3.36,7a6.68,6.68,0,0,0-.8,2.49c0,.81,1,1.22,2.9,1.22v1.87a7.38,7.38,0,0,1-3.07-.6,3.21,3.21,0,0,1-1.72-1.5Z"/><path class="cls-2" d="M172.37,290.67v21.68h32.17V290.67Zm22.12,6,.32.87h1l-.8.58.28.89-.8-.53-.8.53.28-.89-.79-.58h1ZM191.66,295l.31-.87.32.87h1l-.8.57.29.89-.81-.53-.8.53.29-.89-.8-.57Zm-9.59,2.51.31-.86.32.86h1l-.79.57.28.89-.8-.53-.8.53.28-.89-.79-.57Zm-2,3.53h1l.32-.86.31.86h1l-.79.58.28.89-.8-.53-.8.53.28-.89Zm2.26,4.41-.81.52.29-.88-.8-.58h1l.32-.86.31.86h1l-.79.58.28.88Zm3.33,3.06-.8-.53-.8.53.28-.89-.8-.57h1l.31-.86.32.86h1l-.8.57Zm-.25-12.92.28.89-.8-.53-.8.53.28-.89-.79-.58h1l.31-.87.32.87h1Zm3.79,13.86-.81-.53-.79.53.28-.89-.8-.57h1l.31-.87.32.87h1l-.8.57Zm-.28-14.8.28.89-.8-.53-.81.53.29-.89-.8-.57h1l.31-.87.32.87h1Zm3.78,13.88-.8-.53-.8.53.29-.89-.81-.57h1l.31-.87.32.87h1l-.8.57Zm2.55-2.52-.8-.53-.8.53.28-.89-.79-.58h1l.32-.86.32.86h1l-.8.58Zm.95-3.5-.81-.53-.8.53.29-.89-.8-.57h1l.31-.86.32.86h1l-.8.57Z"/><path class="cls-2" d="M211.45,294.49l.62.15a2.1,2.1,0,0,1-.7,1.16,1.92,1.92,0,0,1-1.22.4,2.21,2.21,0,0,1-1.23-.31,1.94,1.94,0,0,1-.71-.89,2.93,2.93,0,0,1-.25-1.24,2.65,2.65,0,0,1,.28-1.27,1.9,1.9,0,0,1,.79-.82,2.19,2.19,0,0,1,1.12-.28,2,2,0,0,1,1.18.35,1.85,1.85,0,0,1,.66,1l-.61.15a1.38,1.38,0,0,0-.46-.74,1.28,1.28,0,0,0-.78-.23,1.47,1.47,0,0,0-.89.25,1.35,1.35,0,0,0-.51.69,2.72,2.72,0,0,0-.14.89,2.63,2.63,0,0,0,.17,1,1.26,1.26,0,0,0,.54.66,1.42,1.42,0,0,0,.78.22,1.34,1.34,0,0,0,.88-.3A1.46,1.46,0,0,0,211.45,294.49Z"/><path class="cls-2" d="M212.54,294.43a1.74,1.74,0,0,1,.52-1.38,1.57,1.57,0,0,1,1.06-.38,1.49,1.49,0,0,1,1.14.46,1.71,1.71,0,0,1,.44,1.26,2.29,2.29,0,0,1-.2,1,1.39,1.39,0,0,1-.57.58,1.76,1.76,0,0,1-.81.2,1.51,1.51,0,0,1-1.14-.45A1.8,1.8,0,0,1,212.54,294.43Zm.59,0a1.39,1.39,0,0,0,.28,1,1,1,0,0,0,1.34.08l.08-.08a1.48,1.48,0,0,0,.28-1,1.33,1.33,0,0,0-.28-.94,1,1,0,0,0-1.34-.08.6.6,0,0,0-.08.08A1.43,1.43,0,0,0,213.13,294.43Z"/><path class="cls-2" d="M216.14,294.72v-.57h1.76v.57Z"/><path class="cls-2" d="M218.66,296.12v-2.93h-.5v-.44h.5v-.36a1.4,1.4,0,0,1,.06-.5.79.79,0,0,1,.29-.36,1.1,1.1,0,0,1,.59-.14,2.33,2.33,0,0,1,.53.06l-.09.49h-.33a.54.54,0,0,0-.37.11.68.68,0,0,0-.11.42v.31h.66v.44h-.66v2.93Z"/><path class="cls-2" d="M222.54,296.12v-.5a1.24,1.24,0,0,1-1.07.57,1.55,1.55,0,0,1-.56-.11.9.9,0,0,1-.38-.29,1.12,1.12,0,0,1-.18-.42,4.69,4.69,0,0,1,0-.53v-2.09h.57v1.87a3,3,0,0,0,0,.6.64.64,0,0,0,.23.35.66.66,0,0,0,.43.13.89.89,0,0,0,.48-.13.75.75,0,0,0,.32-.36,1.66,1.66,0,0,0,.1-.66v-1.8h.57v3.37Z"/><path class="cls-2" d="M223.94,296.12v-3.37h.51v.48a1.24,1.24,0,0,1,1.08-.56,1.55,1.55,0,0,1,.56.11.9.9,0,0,1,.38.29,1.57,1.57,0,0,1,.18.42,5.23,5.23,0,0,1,0,.56v2.07h-.57v-2.05a1.52,1.52,0,0,0-.07-.52.51.51,0,0,0-.24-.28.76.76,0,0,0-.39-.1.91.91,0,0,0-.63.23,1.13,1.13,0,0,0-.27.88v1.84Z"/><path class="cls-2" d="M229.74,296.12v-.43a1,1,0,0,1-1,.5,1.39,1.39,0,0,1-.74-.22,1.43,1.43,0,0,1-.52-.62,2.21,2.21,0,0,1-.18-.91,2.41,2.41,0,0,1,.16-.92,1.32,1.32,0,0,1,.51-.63,1.4,1.4,0,0,1,.75-.22,1.26,1.26,0,0,1,.54.13,1.16,1.16,0,0,1,.39.34v-1.67h.57v4.65Zm-1.81-1.68a1.37,1.37,0,0,0,.28,1,.81.81,0,0,0,1.14.13l.13-.13a1.42,1.42,0,0,0,.27-.94,1.55,1.55,0,0,0-.27-1,.81.81,0,0,0-.66-.32.78.78,0,0,0-.63.31A1.52,1.52,0,0,0,227.93,294.44Z"/><path class="cls-2" d="M233.47,295l.59.07a1.5,1.5,0,0,1-.52.81,1.48,1.48,0,0,1-1,.28,1.51,1.51,0,0,1-1.17-.45,1.76,1.76,0,0,1-.44-1.28,1.87,1.87,0,0,1,.44-1.32,1.58,1.58,0,0,1,2.23,0h0a1.86,1.86,0,0,1,.43,1.3v.15h-2.51a1.28,1.28,0,0,0,.32.85.93.93,0,0,0,.7.29.88.88,0,0,0,.54-.16A1.21,1.21,0,0,0,233.47,295Zm-1.88-.92h1.88a1.07,1.07,0,0,0-.21-.64.85.85,0,0,0-.71-.33.9.9,0,0,0-.66.27,1,1,0,0,0-.3.73Z"/><path class="cls-2" d="M237,296.12v-.43a1,1,0,0,1-.94.5,1.31,1.31,0,0,1-.74-.22,1.45,1.45,0,0,1-.53-.62,2.48,2.48,0,0,1,0-1.83,1.31,1.31,0,0,1,1.25-.85,1.26,1.26,0,0,1,.54.13,1.16,1.16,0,0,1,.39.34v-1.67h.57v4.65Zm-1.81-1.68a1.37,1.37,0,0,0,.28,1,.81.81,0,0,0,.64.32.83.83,0,0,0,.64-.3,1.49,1.49,0,0,0,.26-.94,1.55,1.55,0,0,0-.27-1,.81.81,0,0,0-.66-.32.78.78,0,0,0-.63.31A1.46,1.46,0,0,0,235.15,294.44Z"/><path class="cls-2" d="M240.71,296.12h-.53v-4.65h.58v1.66a1.09,1.09,0,0,1,.92-.46,1.53,1.53,0,0,1,.59.13,1.19,1.19,0,0,1,.45.35,1.44,1.44,0,0,1,.28.55,2.24,2.24,0,0,1,.1.68,2,2,0,0,1-.42,1.34,1.38,1.38,0,0,1-1,.47,1.08,1.08,0,0,1-.94-.5Zm0-1.71a1.73,1.73,0,0,0,.16.87.82.82,0,0,0,.73.44.84.84,0,0,0,.65-.32,1.49,1.49,0,0,0,.27-1,1.54,1.54,0,0,0-.26-1,.8.8,0,0,0-1.1-.18.77.77,0,0,0-.18.18A1.4,1.4,0,0,0,240.71,294.41Z"/><path class="cls-2" d="M243.77,297.41l-.06-.53a1.26,1.26,0,0,0,.33.05.53.53,0,0,0,.3-.07.52.52,0,0,0,.19-.17c.06-.14.12-.28.17-.43l.05-.14-1.27-3.37h.61l.7,1.95q.14.38.24.78c.07-.26.15-.52.24-.77l.72-2h.57l-1.28,3.42c-.14.37-.25.63-.32.77a1.15,1.15,0,0,1-.35.41.78.78,0,0,1-.47.13A1.16,1.16,0,0,1,243.77,297.41Z"/><path class="cls-2" d="M250.09,295.61l.09.5a2.1,2.1,0,0,1-.43.05,1,1,0,0,1-.49-.1.55.55,0,0,1-.24-.26,2.15,2.15,0,0,1-.07-.67v-1.94h-.42v-.44H249v-.83l.57-.35v1.18h.57v.44h-.57v2a.86.86,0,0,0,0,.32.27.27,0,0,0,.1.11h.47Z"/><path class="cls-2" d="M250.65,296.12v-4.65h.57v1.67a1.29,1.29,0,0,1,1-.47,1.32,1.32,0,0,1,.65.15.84.84,0,0,1,.4.41,2.13,2.13,0,0,1,.11.75v2.14h-.57V294a.92.92,0,0,0-.18-.62.69.69,0,0,0-.53-.2.86.86,0,0,0-.47.14.65.65,0,0,0-.32.35,1.47,1.47,0,0,0-.1.62v1.85Z"/><path class="cls-2" d="M256.57,295l.59.07a1.5,1.5,0,0,1-.52.81,1.48,1.48,0,0,1-1,.28,1.51,1.51,0,0,1-1.17-.45,1.76,1.76,0,0,1-.44-1.28,1.87,1.87,0,0,1,.44-1.32,1.58,1.58,0,0,1,2.23,0h0a1.86,1.86,0,0,1,.43,1.3v.15h-2.51a1.28,1.28,0,0,0,.32.85.93.93,0,0,0,.7.29.88.88,0,0,0,.54-.16A1.21,1.21,0,0,0,256.57,295Zm-1.88-.92h1.88a1.07,1.07,0,0,0-.21-.64.85.85,0,0,0-.71-.33.9.9,0,0,0-.66.27,1,1,0,0,0-.3.73Z"/><path class="cls-2" d="M211.45,301.76l.62.15a2.1,2.1,0,0,1-.7,1.16,1.92,1.92,0,0,1-1.22.4,2.21,2.21,0,0,1-1.23-.31,1.94,1.94,0,0,1-.71-.89A2.93,2.93,0,0,1,208,301a2.65,2.65,0,0,1,.28-1.27,1.9,1.9,0,0,1,.79-.82,2.19,2.19,0,0,1,1.12-.28,1.91,1.91,0,0,1,1.22.34,1.79,1.79,0,0,1,.66,1l-.61.15a1.38,1.38,0,0,0-.46-.74,1.28,1.28,0,0,0-.78-.23,1.47,1.47,0,0,0-.89.25,1.35,1.35,0,0,0-.51.69,3,3,0,0,0,0,1.93,1.17,1.17,0,0,0,.54.66,1.42,1.42,0,0,0,.78.22,1.34,1.34,0,0,0,.88-.3A1.47,1.47,0,0,0,211.45,301.76Z"/><path class="cls-2" d="M212.75,303.39V300h.51v.51a1.38,1.38,0,0,1,.36-.47.63.63,0,0,1,.37-.12,1.15,1.15,0,0,1,.59.19l-.2.53a.9.9,0,0,0-.42-.13.5.5,0,0,0-.33.12.68.68,0,0,0-.22.31,2.44,2.44,0,0,0-.09.66v1.77Z"/><path class="cls-2" d="M217.22,302.3l.59.08a1.39,1.39,0,0,1-.52.8,1.6,1.6,0,0,1-2.56-1.45,1.86,1.86,0,0,1,.43-1.32,1.53,1.53,0,0,1,1.14-.47,1.46,1.46,0,0,1,1.1.46,1.82,1.82,0,0,1,.43,1.3v.15h-2.46a1.33,1.33,0,0,0,.31.85.93.93,0,0,0,.7.29.88.88,0,0,0,.54-.16A1.13,1.13,0,0,0,217.22,302.3Zm-1.87-.92h1.88a1.23,1.23,0,0,0-.22-.64.85.85,0,0,0-.71-.33.9.9,0,0,0-.66.27,1.06,1.06,0,0,0-.27.7Z"/><path class="cls-2" d="M220.72,303a2.15,2.15,0,0,1-.61.38,1.5,1.5,0,0,1-.63.11,1.24,1.24,0,0,1-.85-.27.87.87,0,0,1-.3-.69,1,1,0,0,1,.41-.78,2.17,2.17,0,0,1,.41-.19,3,3,0,0,1,.51-.08,4.92,4.92,0,0,0,1-.2v-.15a.62.62,0,0,0-.16-.49,1,1,0,0,0-.65-.19,1,1,0,0,0-.6.14.84.84,0,0,0-.28.5l-.56-.08a1.51,1.51,0,0,1,.25-.58,1.18,1.18,0,0,1,.51-.34,2.42,2.42,0,0,1,.76-.12,1.84,1.84,0,0,1,.7.11.94.94,0,0,1,.4.25.81.81,0,0,1,.17.39,2.35,2.35,0,0,1,0,.53V302a8.34,8.34,0,0,0,0,1,1.25,1.25,0,0,0,.14.41h-.59A1.39,1.39,0,0,1,220.72,303Zm0-1.27a5.1,5.1,0,0,1-.94.21,2.07,2.07,0,0,0-.49.12.49.49,0,0,0-.14.83.73.73,0,0,0,.51.16,1.2,1.2,0,0,0,.59-.15.87.87,0,0,0,.37-.39,1.23,1.23,0,0,0,.1-.57Z"/><path class="cls-2" d="M223.37,302.88l.09.5a2.12,2.12,0,0,1-.44.05,1,1,0,0,1-.48-.1.58.58,0,0,1-.24-.25,2.22,2.22,0,0,1-.07-.68v-1.94h-.42V300h.42v-.83l.57-.35V300h.57v.44h-.57v2a.86.86,0,0,0,0,.32.27.27,0,0,0,.1.11.31.31,0,0,0,.19,0Z"/><path class="cls-2" d="M223.94,299.4v-.66h.58v.66Zm0,4V300h.58v3.37Z"/><path class="cls-2" d="M226.37,303.39,225,300h.6l.72,2c.08.21.15.44.22.68,0-.18.12-.4.21-.65l.75-2h.59l-1.28,3.37Z"/><path class="cls-2" d="M230.93,302.3l.59.08a1.38,1.38,0,0,1-.51.8,1.6,1.6,0,0,1-1,.28,1.54,1.54,0,0,1-1.17-.45,1.75,1.75,0,0,1-.43-1.28,1.87,1.87,0,0,1,.44-1.32,1.58,1.58,0,0,1,2.23,0h0a1.85,1.85,0,0,1,.42,1.3v.15H229a1.33,1.33,0,0,0,.31.85.94.94,0,0,0,.71.29.83.83,0,0,0,.53-.16A1.05,1.05,0,0,0,230.93,302.3Zm-1.87-.92h1.88a1.22,1.22,0,0,0-.21-.64.93.93,0,0,0-1.31-.11l-.06.05a1,1,0,0,0-.3.7Z"/><path class="cls-2" d="M234.13,303.39v-4.65h3.36v.55h-2.75v1.42h2.63v.55h-2.58v1.58h2.86v.55Z"/><path class="cls-2" d="M240.58,303.39v-.5a1.24,1.24,0,0,1-1.07.57,1.15,1.15,0,0,1-.55-.11.93.93,0,0,1-.39-.29,1,1,0,0,1-.17-.42,2.35,2.35,0,0,1,0-.53V300H239v1.87a3,3,0,0,0,0,.6.56.56,0,0,0,.23.35.66.66,0,0,0,.43.13.89.89,0,0,0,.48-.13.8.8,0,0,0,.32-.36,1.85,1.85,0,0,0,.09-.66V300h.57v3.37Z"/><path class="cls-2" d="M242,303.39V300h.51v.51a1.14,1.14,0,0,1,.37-.47.58.58,0,0,1,.36-.12,1.15,1.15,0,0,1,.59.19l-.2.53a.9.9,0,0,0-.42-.13.5.5,0,0,0-.33.12.68.68,0,0,0-.22.31,2.44,2.44,0,0,0-.09.66v1.77Z"/><path class="cls-2" d="M243.93,301.7a1.74,1.74,0,0,1,.52-1.38,1.65,1.65,0,0,1,2.2.08,1.71,1.71,0,0,1,.44,1.26,2.29,2.29,0,0,1-.2,1,1.49,1.49,0,0,1-.56.58,1.77,1.77,0,0,1-.82.2,1.51,1.51,0,0,1-1.14-.44A1.82,1.82,0,0,1,243.93,301.7Zm.59,0a1.48,1.48,0,0,0,.28,1,.9.9,0,0,0,.71.32.88.88,0,0,0,.71-.32,1.39,1.39,0,0,0,.28-1,1.35,1.35,0,0,0-.28-.95,1,1,0,0,0-1.34-.08l-.08.08A1.46,1.46,0,0,0,244.52,301.7Z"/><path class="cls-2" d="M247.76,304.68V300h.52v.44a1.38,1.38,0,0,1,.41-.39,1.21,1.21,0,0,1,.56-.13,1.36,1.36,0,0,1,.76.23,1.32,1.32,0,0,1,.5.62,2.49,2.49,0,0,1,0,1.82,1.44,1.44,0,0,1-.54.63,1.4,1.4,0,0,1-.75.22,1.13,1.13,0,0,1-.51-.12,1.19,1.19,0,0,1-.37-.3v1.64Zm.51-3a1.43,1.43,0,0,0,.27,1,.78.78,0,0,0,.63.31.81.81,0,0,0,.66-.32,1.9,1.9,0,0,0,0-2,.79.79,0,0,0-.63-.32.83.83,0,0,0-.64.34,1.52,1.52,0,0,0-.29,1Z"/><path class="cls-2" d="M253.67,302.3l.59.08a1.38,1.38,0,0,1-.51.8,1.6,1.6,0,0,1-1,.28,1.54,1.54,0,0,1-1.17-.45,1.75,1.75,0,0,1-.43-1.28,1.87,1.87,0,0,1,.44-1.32,1.5,1.5,0,0,1,1.13-.47,1.46,1.46,0,0,1,1.1.46,1.82,1.82,0,0,1,.43,1.3v.15h-2.48a1.33,1.33,0,0,0,.31.85,1,1,0,0,0,1.24.13A1.06,1.06,0,0,0,253.67,302.3Zm-1.87-.92h1.88a1.23,1.23,0,0,0-.22-.64.87.87,0,0,0-.7-.33.86.86,0,0,0-.66.27,1,1,0,0,0-.3.7Z"/><path class="cls-2" d="M276.7,303.39v-4.65h1.75a4.21,4.21,0,0,1,.71,0,1.33,1.33,0,0,1,.57.22,1.15,1.15,0,0,1,.37.45,1.26,1.26,0,0,1,.14.63,1.41,1.41,0,0,1-.37,1,1.84,1.84,0,0,1-1.37.41h-1.19v1.89Zm.61-2.44h1.2a1.29,1.29,0,0,0,.85-.22.78.78,0,0,0,.25-.63.89.89,0,0,0-.15-.5.68.68,0,0,0-.39-.27,2.72,2.72,0,0,0-.57,0h-1.19Z"/><path class="cls-2" d="M281,303.39V300h.51v.51a1.38,1.38,0,0,1,.36-.47.63.63,0,0,1,.37-.12,1.15,1.15,0,0,1,.59.19l-.2.53a.9.9,0,0,0-.42-.13.5.5,0,0,0-.33.12.68.68,0,0,0-.22.31,2.44,2.44,0,0,0-.09.66v1.77Z"/><path class="cls-2" d="M282.9,301.7a1.74,1.74,0,0,1,.52-1.38,1.65,1.65,0,0,1,2.2.08,1.71,1.71,0,0,1,.44,1.26,2.29,2.29,0,0,1-.2,1,1.49,1.49,0,0,1-.56.58,1.77,1.77,0,0,1-.82.2,1.53,1.53,0,0,1-1.11-.44A1.82,1.82,0,0,1,282.9,301.7Zm.59,0a1.39,1.39,0,0,0,.28,1,.9.9,0,0,0,.71.32.88.88,0,0,0,.71-.32,1.39,1.39,0,0,0,.28-1,1.35,1.35,0,0,0-.28-.95,1,1,0,0,0-1.34-.08l-.08.08A1.35,1.35,0,0,0,283.49,301.7Z"/><path class="cls-2" d="M286.62,303.67l.56.08a.52.52,0,0,0,.19.37.91.91,0,0,0,.58.16,1,1,0,0,0,.61-.16.71.71,0,0,0,.29-.44,3,3,0,0,0,0-.73,1.22,1.22,0,0,1-.94.44,1.27,1.27,0,0,1-1.07-.5,2,2,0,0,1-.38-1.2,2.43,2.43,0,0,1,.17-.89,1.36,1.36,0,0,1,1.29-.86,1.24,1.24,0,0,1,1,.49V300h.53v2.91a2.85,2.85,0,0,1-.16,1.12,1.14,1.14,0,0,1-.51.51,1.72,1.72,0,0,1-.86.19,1.61,1.61,0,0,1-1-.27A.88.88,0,0,1,286.62,303.67Zm.47-2a1.43,1.43,0,0,0,.27,1,.86.86,0,0,0,1.32,0,1.46,1.46,0,0,0,.26-.95,1.41,1.41,0,0,0-.27-.93.85.85,0,0,0-1.31,0,1.35,1.35,0,0,0-.27.85Z"/><path class="cls-2" d="M290.37,303.39V300h.51v.51a1.4,1.4,0,0,1,.37-.47.58.58,0,0,1,.36-.12,1.15,1.15,0,0,1,.59.19l-.2.53a.83.83,0,0,0-.41-.13.54.54,0,0,0-.34.12.6.6,0,0,0-.21.31,2.11,2.11,0,0,0-.1.66v1.77Z"/><path class="cls-2" d="M294.7,303a2.15,2.15,0,0,1-.61.38,1.67,1.67,0,0,1-.63.11,1.27,1.27,0,0,1-.86-.27.91.91,0,0,1-.29-.69.79.79,0,0,1,.11-.45.92.92,0,0,1,.29-.33,2.17,2.17,0,0,1,.41-.19,3,3,0,0,1,.51-.08,4.92,4.92,0,0,0,1-.2v-.15a.62.62,0,0,0-.16-.49,1,1,0,0,0-.65-.19.94.94,0,0,0-.59.14.83.83,0,0,0-.29.5l-.57-.09a1.57,1.57,0,0,1,.25-.58,1.18,1.18,0,0,1,.51-.34,2.42,2.42,0,0,1,.76-.12,1.84,1.84,0,0,1,.7.11.85.85,0,0,1,.4.25,1,1,0,0,1,.18.39,2.35,2.35,0,0,1,0,.53V302a8.34,8.34,0,0,0,0,1,1.56,1.56,0,0,0,.15.41h-.6A1.12,1.12,0,0,1,294.7,303Zm-.05-1.27a4.83,4.83,0,0,1-.93.21,2.15,2.15,0,0,0-.5.12.58.58,0,0,0-.23.18.5.5,0,0,0-.08.27.46.46,0,0,0,.18.38.66.66,0,0,0,.5.16,1.2,1.2,0,0,0,.59-.15.89.89,0,0,0,.38-.39,1.39,1.39,0,0,0,.09-.57Z"/><path class="cls-2" d="M296.11,303.39V300h.51v.47a1.31,1.31,0,0,1,.42-.39,1.15,1.15,0,0,1,.6-.16,1.09,1.09,0,0,1,.61.16.81.81,0,0,1,.34.43,1.24,1.24,0,0,1,1-.59,1,1,0,0,1,.77.28,1.17,1.17,0,0,1,.27.86v2.31h-.57v-2.12a1.67,1.67,0,0,0-.05-.5.52.52,0,0,0-.2-.24.67.67,0,0,0-.34-.09.77.77,0,0,0-.59.24,1,1,0,0,0-.24.75v2h-.57V301.2a1,1,0,0,0-.14-.57.51.51,0,0,0-.46-.19.76.76,0,0,0-.44.13.65.65,0,0,0-.3.37,2.07,2.07,0,0,0-.09.7v1.75Z"/><path class="cls-2" d="M301.52,303.39V300H302v.47a1.23,1.23,0,0,1,1.63-.39.81.81,0,0,1,.34.43,1.24,1.24,0,0,1,1-.59,1.1,1.1,0,0,1,.77.28,1.17,1.17,0,0,1,.27.86v2.31h-.57v-2.12a1.67,1.67,0,0,0-.05-.5.52.52,0,0,0-.2-.24.73.73,0,0,0-.35-.09.82.82,0,0,0-.59.24,1,1,0,0,0-.23.75v2h-.57V301.2a1,1,0,0,0-.14-.57.51.51,0,0,0-.46-.19.76.76,0,0,0-.44.13.65.65,0,0,0-.3.37,2.07,2.07,0,0,0-.09.7v1.75Z"/><path class="cls-2" d="M309.23,302.3l.59.08a1.39,1.39,0,0,1-.52.8,1.6,1.6,0,0,1-2.56-1.45,1.86,1.86,0,0,1,.43-1.32,1.53,1.53,0,0,1,1.14-.47,1.46,1.46,0,0,1,1.1.46,1.82,1.82,0,0,1,.43,1.3v.15h-2.47a1.33,1.33,0,0,0,.31.85.93.93,0,0,0,.7.29.88.88,0,0,0,.54-.16A1.1,1.1,0,0,0,309.23,302.3Zm-1.87-.92h1.88a1.23,1.23,0,0,0-.22-.64.85.85,0,0,0-.71-.33.9.9,0,0,0-.66.27,1.07,1.07,0,0,0-.28.7Z"/><path class="cls-2" d="M207.85,309a1.75,1.75,0,0,1,.52-1.39,1.58,1.58,0,0,1,1.06-.37,1.55,1.55,0,0,1,1.14.45A1.71,1.71,0,0,1,211,309a2.29,2.29,0,0,1-.2,1,1.49,1.49,0,0,1-.56.58,1.56,1.56,0,0,1-.82.2,1.51,1.51,0,0,1-1.14-.45A1.81,1.81,0,0,1,207.85,309Zm.59,0a1.37,1.37,0,0,0,.28,1,.92.92,0,0,0,.71.33.89.89,0,0,0,.71-.33,1.39,1.39,0,0,0,.28-1,1.35,1.35,0,0,0-.28-.95,1,1,0,0,0-1.34-.08.6.6,0,0,0-.08.08A1.41,1.41,0,0,0,208.44,309Z"/><path class="cls-2" d="M211.81,310.66v-2.92h-.5v-.45h.5v-.36a1.4,1.4,0,0,1,.06-.5.79.79,0,0,1,.29-.36,1.08,1.08,0,0,1,.58-.14,2.48,2.48,0,0,1,.54.06l-.09.5h-.33a.46.46,0,0,0-.37.11.55.55,0,0,0-.11.41v.31H213v.45h-.67v2.92Z"/><path class="cls-2" d="M216.53,310.15l.08.5a2.1,2.1,0,0,1-.43.05.89.89,0,0,1-.48-.1.49.49,0,0,1-.24-.25,2,2,0,0,1-.07-.68v-1.93H215v-.45h.4v-.83l.57-.34v1.17h.57v.45h-.57v2a.86.86,0,0,0,0,.32.31.31,0,0,0,.09.11.34.34,0,0,0,.2,0Z"/><path class="cls-2" d="M217.09,310.66V306h.57v1.67a1.25,1.25,0,0,1,1-.46,1.46,1.46,0,0,1,.65.14.91.91,0,0,1,.39.41,2,2,0,0,1,.12.76v2.13h-.57v-2.13a.89.89,0,0,0-.19-.63.68.68,0,0,0-.52-.19.89.89,0,0,0-.48.13.8.8,0,0,0-.32.36,1.64,1.64,0,0,0-.09.62v1.84Z"/><path class="cls-2" d="M223,309.57l.59.08a1.38,1.38,0,0,1-.51.8,1.6,1.6,0,0,1-1,.28,1.54,1.54,0,0,1-1.17-.45,1.75,1.75,0,0,1-.43-1.28,1.83,1.83,0,0,1,.44-1.31,1.43,1.43,0,0,1,1.13-.47,1.39,1.39,0,0,1,1.1.46,1.79,1.79,0,0,1,.43,1.29v.15h-2.51a1.33,1.33,0,0,0,.31.85,1,1,0,0,0,1.24.13A1,1,0,0,0,223,309.57Zm-1.87-.92H223a1.23,1.23,0,0,0-.22-.64.86.86,0,0,0-.7-.32.85.85,0,0,0-.66.26A1,1,0,0,0,221.13,308.65Z"/><path class="cls-2" d="M226.2,310.66V306h3.36v.55h-2.75V308h2.56v.55H226.8v1.58h2.86v.55Z"/><path class="cls-2" d="M232.65,310.66v-.5a1.24,1.24,0,0,1-1.07.57,1.36,1.36,0,0,1-.56-.11.9.9,0,0,1-.38-.29,1,1,0,0,1-.17-.42,2.35,2.35,0,0,1,0-.53v-2.09H231v1.87a3,3,0,0,0,0,.6.65.65,0,0,0,.22.36.75.75,0,0,0,.44.12.89.89,0,0,0,.48-.13.8.8,0,0,0,.32-.36,1.8,1.8,0,0,0,.09-.65v-1.81h.57v3.37Z"/><path class="cls-2" d="M234.05,310.66v-3.37h.51v.51a1.51,1.51,0,0,1,.36-.47.62.62,0,0,1,.37-.11,1.23,1.23,0,0,1,.59.18l-.2.53a.79.79,0,0,0-.42-.12.49.49,0,0,0-.33.11.68.68,0,0,0-.22.31,2.52,2.52,0,0,0-.09.67v1.76Z"/><path class="cls-2" d="M236,309a1.75,1.75,0,0,1,.52-1.39,1.58,1.58,0,0,1,1.06-.37,1.55,1.55,0,0,1,1.14.45,1.71,1.71,0,0,1,.44,1.26,2.29,2.29,0,0,1-.2,1,1.49,1.49,0,0,1-.56.58,1.56,1.56,0,0,1-.82.2,1.51,1.51,0,0,1-1.14-.45A1.81,1.81,0,0,1,236,309Zm.59,0a1.37,1.37,0,0,0,.28,1,.92.92,0,0,0,.71.33.89.89,0,0,0,.71-.33,1.39,1.39,0,0,0,.28-1,1.35,1.35,0,0,0-.28-.95A1,1,0,0,0,237,308a.6.6,0,0,0-.08.08A1.41,1.41,0,0,0,236.59,309Z"/><path class="cls-2" d="M239.83,312v-4.66h.54v.44a1.38,1.38,0,0,1,.41-.39,1.2,1.2,0,0,1,.56-.12,1.28,1.28,0,0,1,.76.22,1.32,1.32,0,0,1,.5.62,2.47,2.47,0,0,1,.17.89,2.12,2.12,0,0,1-.19.93,1.33,1.33,0,0,1-.54.63,1.39,1.39,0,0,1-.74.22,1.13,1.13,0,0,1-.51-.12,1.07,1.07,0,0,1-.37-.3V312Zm.51-3a1.43,1.43,0,0,0,.27,1,.79.79,0,0,0,1.28,0,2,2,0,0,0,0-2,.82.82,0,0,0-.63-.32.88.88,0,0,0-.65.34,1.57,1.57,0,0,0-.25,1Z"/><path class="cls-2" d="M245.74,309.57l.59.08a1.39,1.39,0,0,1-.52.8,1.6,1.6,0,0,1-2.56-1.45,1.83,1.83,0,0,1,.43-1.31,1.45,1.45,0,0,1,1.14-.47,1.39,1.39,0,0,1,1.1.46,1.78,1.78,0,0,1,.45,1.32v.15h-2.51a1.33,1.33,0,0,0,.31.85.89.89,0,0,0,.7.3,1,1,0,0,0,.54-.17A1,1,0,0,0,245.74,309.57Zm-1.87-.92h1.88a1.23,1.23,0,0,0-.22-.64,1,1,0,0,0-1.37-.06A1.08,1.08,0,0,0,243.87,308.65Z"/><path class="cls-2" d="M249.24,310.24a2.15,2.15,0,0,1-.61.38,1.48,1.48,0,0,1-.62.11,1.27,1.27,0,0,1-.86-.27,1,1,0,0,1,.11-1.47,2.17,2.17,0,0,1,.41-.19,4.5,4.5,0,0,1,.51-.08,4.92,4.92,0,0,0,1-.2v-.15a.62.62,0,0,0-.16-.49,1,1,0,0,0-.65-.19,1,1,0,0,0-.6.14.84.84,0,0,0-.28.5l-.56-.08a1.51,1.51,0,0,1,.25-.58,1.18,1.18,0,0,1,.51-.34,2.45,2.45,0,0,1,.76-.11,2.08,2.08,0,0,1,.7.1,1,1,0,0,1,.4.25,1,1,0,0,1,.18.39v1.29a8.34,8.34,0,0,0,0,1,1.25,1.25,0,0,0,.14.41h-.5A1.21,1.21,0,0,1,249.24,310.24Zm0-1.27a3.77,3.77,0,0,1-.94.21,2.07,2.07,0,0,0-.49.12.5.5,0,0,0-.23.18.54.54,0,0,0-.08.28.49.49,0,0,0,.18.38.74.74,0,0,0,.5.15,1.2,1.2,0,0,0,.59-.15.89.89,0,0,0,.38-.39,1.39,1.39,0,0,0,.09-.57Z"/><path class="cls-2" d="M250.66,310.66v-3.37h.51v.48a1.2,1.2,0,0,1,1.07-.55,1.22,1.22,0,0,1,.56.11.81.81,0,0,1,.38.28,1.05,1.05,0,0,1,.18.42,5.23,5.23,0,0,1,0,.56v2.07h-.57v-2.05a1.51,1.51,0,0,0-.06-.52.6.6,0,0,0-.24-.28.7.7,0,0,0-.4-.1,1,1,0,0,0-.63.23,1.17,1.17,0,0,0-.26.88v1.84Z"/><path class="cls-2" d="M259.2,306h.61v2.69a3.21,3.21,0,0,1-.16,1.11,1.34,1.34,0,0,1-.57.67,2,2,0,0,1-1.09.26,2.28,2.28,0,0,1-1.06-.23,1.31,1.31,0,0,1-.6-.65,3.06,3.06,0,0,1-.17-1.16V306h.61v2.68a3,3,0,0,0,.11.9.93.93,0,0,0,.39.44,1.32,1.32,0,0,0,.67.15,1.34,1.34,0,0,0,1-.3,1.85,1.85,0,0,0,.29-1.19Z"/><path class="cls-2" d="M260.76,310.66v-3.37h.51v.48a1.23,1.23,0,0,1,1.08-.55,1.22,1.22,0,0,1,.56.11.88.88,0,0,1,.38.28,1.57,1.57,0,0,1,.18.42,5.23,5.23,0,0,1,0,.56v2.07h-.57v-2.05a1.52,1.52,0,0,0-.07-.52.51.51,0,0,0-.24-.28.76.76,0,0,0-.39-.1.91.91,0,0,0-.63.23,1.13,1.13,0,0,0-.27.88v1.84Z"/><path class="cls-2" d="M264.37,306.67V306h.57v.66Zm0,4V307.3h.57v3.37Z"/><path class="cls-2" d="M265.6,309a1.75,1.75,0,0,1,.52-1.39,1.69,1.69,0,0,1,2.2.08,1.71,1.71,0,0,1,.44,1.26,2.29,2.29,0,0,1-.2,1,1.39,1.39,0,0,1-.57.58,1.55,1.55,0,0,1-.81.2,1.51,1.51,0,0,1-1.14-.45A1.81,1.81,0,0,1,265.6,309Zm.59,0a1.37,1.37,0,0,0,.28,1,.93.93,0,0,0,1.31.11.57.57,0,0,0,.11-.11,1.39,1.39,0,0,0,.28-1,1.35,1.35,0,0,0-.28-.95,1,1,0,0,0-1.34-.08.6.6,0,0,0-.08.08A1.41,1.41,0,0,0,266.19,309Z"/><path class="cls-2" d="M269.42,310.66v-3.37h.52v.48a1.2,1.2,0,0,1,1.07-.55,1.22,1.22,0,0,1,.56.11.81.81,0,0,1,.38.28,1.05,1.05,0,0,1,.18.42,5.23,5.23,0,0,1,0,.56v2.07h-.57v-2.05a1.31,1.31,0,0,0-.07-.52.49.49,0,0,0-.23-.28.79.79,0,0,0-.4-.1,1,1,0,0,0-.63.23,1.12,1.12,0,0,0-.26.88v1.84Z"/><polygon class="cls-2" points="272.24 300.33 273.22 300.33 273.09 300.01 272.37 300.01 272.43 299.88 273.03 299.88 272.91 299.57 272.55 299.57 272.55 299.57 272.13 299.57 272 299.88 272.43 299.88 272.37 300.01 271.95 300.01 271.82 300.33 272.24 300.33 272.24 300.33 272.24 300.33"/><path class="cls-2" d="M273.25,300.35h-1.47l.15-.36h.44v-.09h-.43l.15-.35h.8l.15.35h-.62V300h.69l.15.36Zm-1.4-.05h1.34l-.12-.26H272l-.11.26Zm.57-.44H273l-.11-.27h-.74l-.11.27Z"/><polygon class="cls-2" points="272.61 299.43 272.85 299.43 272.71 299.09 272.33 299.09 272.19 299.43 272.61 299.43 272.61 299.43 272.61 299.43"/><path class="cls-2" d="M272.88,299.46h-.73l.16-.39h.41Zm-.66,0h.6l-.13-.29h-.32l-.12.29Z"/><polygon class="cls-2" points="272.87 301.67 273.29 301.67 273.77 301.67 273.64 301.35 273.16 301.35 273.11 301.22 273.59 301.22 273.46 300.91 272.98 300.91 272.94 300.82 272.9 300.91 272.94 300.82 272.98 300.91 272.9 300.91 272.55 300.91 272.68 301.22 272.78 301.22 273.1 301.22 273.16 301.35 272.74 301.35 272.87 301.67 272.87 301.67"/><path class="cls-2" d="M273.81,301.69h-1l-.15-.36h.43v-.09h-.42l-.15-.36h.37l.05-.12h0l.05.12h.48l.15.36h-.48v.09h.48l.15.36Zm-.93-.05h.86l-.11-.26h-.86Zm.19-.44h.48l-.11-.27h-.86l.11.27Z"/><polygon class="cls-2" points="272.73 301.33 272.78 301.22 272.73 301.33 272.73 301.33"/><polygon class="cls-2" points="272.75 301.34 272.71 301.33 272.76 301.21 272.8 301.23 272.75 301.34 272.75 301.34"/><polygon class="cls-2" points="272.96 300.77 273.4 300.77 273.27 300.46 272.19 300.46 272.18 300.46 271.76 300.46 271.63 300.77 272.06 300.77 272.92 300.77 272.96 300.77 272.96 300.77"/><path class="cls-2" d="M273.44,300.8H271.6l.15-.36h1.54Zm-1.77-.05h1.7l-.11-.27h-1.48Z"/><polygon class="cls-2" points="273.96 302.11 273.83 301.8 273.35 301.8 272.92 301.8 272.95 301.87 272.09 301.87 272.12 301.8 271.64 301.8 271.69 301.67 272.17 301.67 272.3 301.35 271.82 301.35 271.88 301.22 272.36 301.22 272.49 300.91 272 300.91 272.06 300.77 272 300.91 271.58 300.91 271.45 301.22 271.87 301.22 271.82 301.35 271.39 301.35 271.26 301.67 271.69 301.67 271.63 301.8 271.21 301.8 271.08 302.11 271.5 302.11 273.96 302.11 273.96 302.11"/><path class="cls-2" d="M274,302.13h-2.94l.14-.35h.43v-.09h-.43l.15-.36h.42v-.09h-.42l.14-.36h.43l0-.12h0v.1h.48l-.15.36h-.48v.09h.56l-.14.36h-.48v.09h.48v.06H273v-.06h1l.15.35Zm-2.88,0h2.81l-.11-.27H273v.07H272v-.07h-.86l-.11.27Zm.57-.45h.48l.11-.26h-.9l-.11.26Zm.18-.44h.51l.11-.27h-.86l-.11.27Z"/><polygon class="cls-2" points="273.9 303.14 273.48 303.14 273.61 303.44 274.5 303.44 274.38 303.14 273.9 303.14 273.9 303.14"/><path class="cls-2" d="M274.54,303.46h-1l-.14-.34h.92l.15.34Zm-.92,0h.85l-.11-.26h-.85Z"/><polygon class="cls-2" points="274.32 303 274.2 302.69 271.27 302.69 270.84 302.69 270.53 303.44 271.43 303.44 271.56 303.14 271.08 303.14 270.73 303.14 270.73 303 271.13 303 271.61 303 271.72 302.75 273.32 302.75 273.42 303 273.85 303 274.32 303 274.32 303"/><path class="cls-2" d="M271.45,303.46h-.95l.33-.79h3.38l.15.36h-1l-.11-.26H271.7l-.11.26h-.88v.09h.84l-.14.34Zm-.88,0h.85l.1-.26h-.81v-.08Zm2.87-.44h.85l-.11-.27h-3.32l-.11.27h.85l.11-.25h1.66l.11.25Z"/><polygon class="cls-2" points="274.14 302.56 274.01 302.25 271.45 302.25 271.02 302.25 270.9 302.56 271.32 302.56 274.14 302.56 274.14 302.56"/><path class="cls-2" d="M274.17,302.58h-3.31l.15-.36h3l.14.36Zm-3.24,0h3.18l-.11-.27h-3l-.11.27Z"/><polygon class="cls-2" points="272.65 298.96 272.52 298.63 272.38 298.96 272.65 298.96 272.65 298.96"/><path class="cls-2" d="M272.69,299h-.32l.17-.41.17.41Zm-.27,0h.2l-.1-.25Z"/><polygon class="cls-2" points="264.26 301.23 264.26 300.91 262.05 300.91 261.61 300.91 261.61 301.23 262.05 301.23 264.26 301.23 264.26 301.23"/><path class="cls-2" d="M264.28,301.25h-2.7v-.37h2.7Zm-2.65-.05h2.61v-.27h-2.61Z"/><polygon class="cls-2" points="262.47 300.78 262.47 300.46 262.05 300.46 261.61 300.46 261.61 300.78 262.05 300.78 262.47 300.78 262.47 300.78"/><path class="cls-2" d="M262.49,300.8h-.91v-.36h.91Zm-.86,0h.82v-.28h-.82Z"/><polygon class="cls-2" points="262.47 300.33 262.47 300.01 262.05 300.01 261.61 300.01 261.61 300.33 262.05 300.33 262.47 300.33 262.47 300.33"/><path class="cls-2" d="M262.49,300.35h-.91V300h.91v.36Zm-.86-.05h.82V300h-.82v.3Z"/><polygon class="cls-2" points="262.47 299.88 262.47 299.88 264.26 299.88 264.26 299.57 262.05 299.57 261.61 299.57 261.61 299.88 262.05 299.88 262.47 299.88 262.47 299.88"/><path class="cls-2" d="M262.47,299.9h-.89v-.35h2.7v.35Zm-.84,0h2.61v-.26h-2.61v.27Z"/><polygon class="cls-2" points="264.26 299.43 264.26 299.09 261.61 299.09 261.61 299.43 262.05 299.43 264.26 299.43 264.26 299.43"/><path class="cls-2" d="M264.28,299.46h-2.7v-.39h2.7Zm-2.65,0h2.61v-.29h-2.61Z"/><polygon class="cls-2" points="264.26 303.01 264.26 302.69 262.05 302.69 261.61 302.69 261.61 303.01 262.05 303.01 264.26 303.01 264.26 303.01"/><path class="cls-2" d="M264.28,303h-2.7v-.36h2.7Zm-2.65,0h2.61v-.28h-2.61Z"/><polygon class="cls-2" points="262.05 303.14 261.61 303.14 261.61 303.44 264.26 303.44 264.26 303.14 262.05 303.14 262.05 303.14"/><path class="cls-2" d="M264.28,303.46h-2.7v-.34h2.7Zm-2.65,0h2.61v-.26h-2.61Z"/><polygon class="cls-2" points="262.47 302.56 262.47 302.25 262.05 302.25 261.61 302.25 261.61 302.56 262.05 302.56 262.47 302.56 262.47 302.56"/><path class="cls-2" d="M262.49,302.59h-.91v-.37h.91Zm-.86,0h.82v-.27h-.82Z"/><polygon class="cls-2" points="262.47 302.11 262.47 301.8 262.05 301.8 261.61 301.8 261.61 302.11 262.05 302.11 262.47 302.11 262.47 302.11"/><path class="cls-2" d="M262.49,302.13h-.91v-.35h.91Zm-.86,0h.82v-.27h-.82Z"/><polygon class="cls-2" points="262.47 301.67 262.47 301.66 264.26 301.66 264.26 301.35 262.05 301.35 261.61 301.35 261.61 301.67 262.05 301.67 262.47 301.67 262.47 301.67"/><path class="cls-2" d="M262.47,301.69h-.89v-.36h2.7v.35Zm-.84-.05h2.61v-.26h-2.61Z"/><path class="cls-2" d="M268.74,300.91h-.93a.91.91,0,0,1,0,.33h.91v-.06a1,1,0,0,0,0-.25Z"/><path class="cls-2" d="M268.78,301.24h-1a1,1,0,0,0,0-.34h1v.34Zm-.9,0h.86V301h-.89a1.22,1.22,0,0,1,0,.27Z"/><path class="cls-2" d="M268.18,301.72v0Z"/><path class="cls-2" d="M268.17,301.79h0v-.06h0Z"/><path class="cls-2" d="M267.92,299.43a1.32,1.32,0,0,0-.7-.34h-2v.34h2.7Z"/><path class="cls-2" d="M268,299.46h-2.81v-.39h2.05a1.26,1.26,0,0,1,.71.35H268Zm-2.77,0h2.64a1.18,1.18,0,0,0-.63-.29h-2v.29Z"/><path class="cls-2" d="M268.37,299.88c-.09-.11-.18-.22-.27-.31h-2.87v.31Z"/><path class="cls-2" d="M268.37,299.9h-3.2v-.35h2.91a4,4,0,0,1,.26.32h0Zm-3.16,0h3.07a2,2,0,0,0-.23-.27h-2.84Z"/><path class="cls-2" d="M268.28,301.35h-.43a1.67,1.67,0,0,1-.08.32h.94a.72.72,0,0,1,.05-.32Z"/><path class="cls-2" d="M268.73,301.69h-1a1.08,1.08,0,0,0,.07-.31h1a.67.67,0,0,1-.05.31h0Zm-.93-.05h.89v-.26h-.86a.38.38,0,0,1-.07.26Z"/><path class="cls-2" d="M268.63,300.46h-1a1,1,0,0,1,.18.31h1a1.58,1.58,0,0,0-.09-.31Z"/><path class="cls-2" d="M268.75,300.8h-1a1.34,1.34,0,0,0-.17-.31h1.11a1.87,1.87,0,0,0,.08.32h0Zm-1-.05h.91a2.76,2.76,0,0,0-.08-.27h-1a1.82,1.82,0,0,1,.15.27Z"/><path class="cls-2" d="M268.67,301.8h-1a1.27,1.27,0,0,1-.2.31h1a1.15,1.15,0,0,0,.11-.31Z"/><path class="cls-2" d="M268.58,302.13h-1.12a1.27,1.27,0,0,0,.2-.31h1a1.66,1.66,0,0,1-.12.31Zm-1,0h1a1,1,0,0,1,.1-.27h-.93a1.2,1.2,0,0,1-.16.27Z"/><path class="cls-2" d="M266.85,300a1.13,1.13,0,0,1,.62.32h.44l.1.11-.1-.11h.67a3.18,3.18,0,0,0-.16-.32Z"/><path class="cls-2" d="M268,300.45l-.09-.1h-.44a1.07,1.07,0,0,0-.62-.3V300h1.59a3.18,3.18,0,0,1,.16.32h-.66l.07.07h0Zm-.13-.15h.69a2.38,2.38,0,0,0-.18-.3H267a1.17,1.17,0,0,1,.44.26Z"/><path class="cls-2" d="M267.93,302.14l-.08.09Z"/><path class="cls-2" d="M267.86,302.24h0l.08-.08h0Z"/><path class="cls-2" d="M267.9,303a1.57,1.57,0,0,0,.31-.32h-3V303h2.69Z"/><path class="cls-2" d="M267.9,303h-2.73v-.36h3.09c-.1.11-.21.22-.32.32Zm-2.69,0h2.68a1.85,1.85,0,0,0,.28-.28h-3V303Z"/><path class="cls-2" d="M268.31,302.56a2,2,0,0,0,.19-.31h-1.13a1,1,0,0,1-.64.31h-.68v-.31h-.88v.31h3.14Z"/><path class="cls-2" d="M268.37,302.59h-3.2v-.37h.92v.32h.66a1,1,0,0,0,.63-.31h1.16a3.37,3.37,0,0,1-.19.32Zm-1.34,0h1.32c.06-.09.12-.18.17-.27h-1.15a1.17,1.17,0,0,1-.42.27Zm-1.77,0h.84v-.27h-.84Z"/><path class="cls-2" d="M265.62,303.14h-.43v.31h1.52a1.78,1.78,0,0,0,1-.3Z"/><path class="cls-2" d="M265.17,303.47v-.35h2.56a1.86,1.86,0,0,1-1,.3Zm0-.31v.26h1.5a1.79,1.79,0,0,0,.93-.26Z"/><polygon class="cls-2" points="266.07 301.22 266.07 300.91 265.62 300.91 265.19 300.91 265.19 301.22 265.62 301.22 266.07 301.22 266.07 301.22"/><path class="cls-2" d="M266.09,301.24h-.92v-.36h.92Zm-.88,0H266V301h-.83Z"/><polygon class="cls-2" points="266.07 300.77 266.06 300.46 265.62 300.46 265.19 300.46 265.19 300.77 265.62 300.77 266.07 300.77 266.07 300.77"/><path class="cls-2" d="M266.09,300.8h-.92v-.36h.92Zm-.88-.05H266v-.27h-.83Z"/><polygon class="cls-2" points="266.06 300.33 266.06 300.01 265.62 300.01 265.19 300.01 265.19 300.33 265.62 300.33 266.06 300.33 266.06 300.33"/><path class="cls-2" d="M266.09,300.35h-.92V300h.92v.36Zm-.88-.05H266V300h-.83v.3Z"/><polygon class="cls-2" points="266.07 302.11 266.07 301.8 265.62 301.8 265.19 301.8 265.19 302.11 265.62 302.11 266.07 302.11 266.07 302.11"/><path class="cls-2" d="M266.09,302.13h-.92v-.35h.92Zm-.88,0h.84v-.27h-.84Z"/><polygon class="cls-2" points="266.07 301.67 266.07 301.35 265.62 301.35 265.19 301.35 265.19 301.67 265.62 301.67 266.07 301.67 266.07 301.67"/><path class="cls-2" d="M266.09,301.69h-.92v-.36h.92Zm-.88-.05h.84v-.26h-.83v.26Z"/><polygon class="cls-2" points="260.69 298.99 260.69 298.78 260.5 298.99 260.69 298.99 260.69 298.99"/><path class="cls-2" d="M260.71,299h-.25l.25-.27Zm-.17,0h.13v-.14Z"/><polygon class="cls-2" points="256.27 298.83 256.27 298.99 256.41 298.99 256.27 298.83 256.27 298.83"/><path class="cls-2" d="M256.46,299h-.21v-.22Zm-.17,0h.08l-.08-.09V299Z"/><polygon class="cls-2" points="260.25 303.14 260.25 303 261.13 303 261.13 303.14 260.25 303.14 260.25 303.14"/><polygon class="cls-2" points="260.25 302.69 260.25 302.56 261.13 302.56 261.13 302.69 260.25 302.69 260.25 302.69"/><polygon class="cls-2" points="260.25 302.24 260.25 302.11 261.13 302.11 261.13 302.24 260.25 302.24 260.25 302.24"/><polygon class="cls-2" points="260.25 301.8 260.25 301.67 261.13 301.67 261.13 301.8 260.25 301.8 260.25 301.8"/><polygon class="cls-2" points="260.25 301.35 260.25 301.22 261.13 301.22 261.13 301.35 260.25 301.35 260.25 301.35"/><polygon class="cls-2" points="259.18 300.9 259.3 300.77 261.13 300.77 261.13 300.9 259.18 300.9 259.18 300.9"/><polygon class="cls-2" points="259.59 300.46 259.7 300.33 261.13 300.33 261.13 300.46 259.59 300.46 259.59 300.46"/><polygon class="cls-2" points="259.99 300.01 260.11 299.88 261.13 299.88 261.13 300.01 259.99 300.01 259.99 300.01"/><polygon class="cls-2" points="260.39 299.56 260.51 299.43 261.13 299.43 261.13 299.56 260.39 299.56 260.39 299.56"/><polygon class="cls-2" points="260.82 299.09 260.92 298.99 261.13 298.99 261.13 299.09 260.82 299.09 260.82 299.09"/><polygon class="cls-2" points="257.86 301.35 257.75 301.22 260.05 301.22 259.94 301.35 257.86 301.35 257.86 301.35"/><polygon class="cls-2" points="258.25 301.8 258.13 301.67 259.68 301.67 259.57 301.8 258.25 301.8 258.25 301.8"/><polygon class="cls-2" points="258.63 302.24 258.52 302.11 259.3 302.11 259.2 302.24 258.63 302.24 258.63 302.24"/><polygon class="cls-2" points="257.58 303.14 257.58 303 256.7 303 256.7 303.14 257.58 303.14 257.58 303.14"/><polygon class="cls-2" points="257.58 302.69 257.58 302.56 256.7 302.56 256.7 302.69 257.58 302.69 257.58 302.69"/><polygon class="cls-2" points="257.58 302.24 257.58 302.11 256.7 302.11 256.7 302.24 257.58 302.24 257.58 302.24"/><polygon class="cls-2" points="257.58 301.8 257.58 301.67 256.7 301.67 256.7 301.8 257.58 301.8 257.58 301.8"/><polygon class="cls-2" points="257.58 301.35 257.58 301.22 256.7 301.22 256.7 301.35 257.58 301.35 257.58 301.35"/><polygon class="cls-2" points="258.65 300.9 258.53 300.77 256.7 300.77 256.7 300.9 258.65 300.9 258.65 300.9"/><polygon class="cls-2" points="258.24 300.46 258.13 300.33 256.7 300.33 256.7 300.46 258.24 300.46 258.24 300.46"/><polygon class="cls-2" points="257.84 300.01 257.72 299.88 256.7 299.88 256.7 300.01 257.84 300.01 257.84 300.01"/><polygon class="cls-2" points="257.43 299.56 257.32 299.43 256.7 299.43 256.7 299.56 257.43 299.56 257.43 299.56"/><polygon class="cls-2" points="257.67 300.33 257.37 300.01 256.7 300.01 256.27 300.01 256.27 300.33 256.7 300.33 257.67 300.33 257.67 300.33"/><path class="cls-2" d="M257.72,300.35h-1.47V300h1.12l.34.36Zm-1.43-.05h1.32l-.24-.3H256.3v.3Z"/><polygon class="cls-2" points="258.08 300.77 257.79 300.46 256.7 300.46 256.27 300.46 256.27 300.77 256.7 300.77 258.08 300.77 258.08 300.77"/><path class="cls-2" d="M258.13,300.8h-1.88v-.36h1.55l.33.36Zm-1.84-.05H258l-.25-.27h-1.49Z"/><polygon class="cls-2" points="257.14 301.67 257.14 301.35 256.7 301.35 256.27 301.35 256.27 301.67 256.7 301.67 257.14 301.67 257.14 301.67"/><path class="cls-2" d="M257.17,301.69h-.92v-.36h.92Zm-.88-.05h.83v-.27h-.83Z"/><polygon class="cls-2" points="257.14 302.11 257.14 301.8 256.7 301.8 256.27 301.8 256.27 302.11 256.7 302.11 257.14 302.11 257.14 302.11"/><path class="cls-2" d="M257.17,302.13h-.92v-.36h.92Zm-.88,0h.83v-.27h-.83Z"/><polygon class="cls-2" points="257.25 299.88 256.95 299.56 256.7 299.56 256.27 299.56 256.27 299.88 256.7 299.88 257.25 299.88 257.25 299.88"/><path class="cls-2" d="M257.3,299.9h-1.05v-.36H257Zm-1,0h.91l-.26-.27h-.65Z"/><polygon class="cls-2" points="256.83 299.43 256.51 299.09 256.27 299.09 256.27 299.43 256.7 299.43 256.83 299.43 256.83 299.43"/><path class="cls-2" d="M256.88,299.46h-.63v-.39h.27l.36.39Zm-.59,0h.49l-.28-.29h-.21Z"/><polygon class="cls-2" points="260.51 299.43 260.69 299.43 260.69 299.09 260.41 299.09 260.1 299.43 260.51 299.43 260.51 299.43 260.51 299.43"/><path class="cls-2" d="M260.71,299.46h-.66l.35-.39h.31Zm-.56,0h.52v-.29h-.25Z"/><polygon class="cls-2" points="257.14 302.56 257.14 302.24 256.7 302.24 256.27 302.24 256.27 302.56 256.7 302.56 257.14 302.56 257.14 302.56"/><path class="cls-2" d="M257.17,302.58h-.92v-.36h.92Zm-.88,0h.83v-.27h-.83Z"/><polygon class="cls-2" points="260.69 300.01 259.99 300.01 259.99 300.01 259.57 300.01 259.29 300.33 259.7 300.33 260.69 300.33 260.69 300.01 260.69 300.01"/><path class="cls-2" d="M260.71,300.35h-1.47l.32-.36h1.15Zm-1.34-.05h1.33V300h-1.09l-.24.27Z"/><polygon class="cls-2" points="259.3 300.77 260.69 300.77 260.69 300.46 259.59 300.46 259.7 300.33 259.58 300.46 259.17 300.46 258.88 300.77 259.3 300.77 259.3 300.77 259.3 300.77"/><path class="cls-2" d="M260.71,300.8h-1.88l.33-.36h.41l.12-.13h0l-.08.1h1.07v.36Zm-1.78-.05h1.74v-.27h-1.49Z"/><polygon class="cls-2" points="260.69 299.88 260.69 299.56 260.4 299.56 260.39 299.56 259.98 299.56 259.69 299.88 260.11 299.88 260.69 299.88 260.69 299.88"/><path class="cls-2" d="M260.71,299.9h-1.07l.33-.36h.74v.36Zm-1,0h.93v-.27H260Z"/><polygon class="cls-2" points="257.14 303 257.14 302.69 256.7 302.69 256.27 302.69 256.27 303 256.7 303 257.14 303 257.14 303"/><path class="cls-2" d="M257.17,303h-.92v-.36h.92Zm-.88,0h.83v-.27h-.83Z"/><polygon class="cls-2" points="260.69 303 260.69 302.69 260.25 302.69 259.82 302.69 259.82 303 260.25 303 260.69 303 260.69 303"/><path class="cls-2" d="M260.71,303h-.92v-.36h.92Zm-.87,0h.83v-.27h-.83Z"/><polygon class="cls-2" points="260.25 302.24 259.82 302.24 259.82 302.56 260.25 302.56 260.69 302.56 260.69 302.24 260.25 302.24 260.25 302.24"/><path class="cls-2" d="M260.71,302.58h-.92v-.36h.92Zm-.87,0h.83v-.27h-.83Z"/><polygon class="cls-2" points="260.25 303.14 259.82 303.14 259.82 303.44 260.69 303.44 260.69 303.14 260.25 303.14 260.25 303.14"/><path class="cls-2" d="M260.71,303.46h-.92v-.35h.92Zm-.87,0h.83v-.26h-.83Z"/><polygon class="cls-2" points="260.25 301.35 259.94 301.35 259.94 301.35 259.82 301.35 259.82 301.67 260.25 301.67 260.69 301.67 260.69 301.35 260.25 301.35 260.25 301.35"/><path class="cls-2" d="M260.71,301.69h-.92v-.36h.92Zm-.87-.05h.83v-.27h-.83Z"/><polygon class="cls-2" points="260.25 301.8 259.82 301.8 259.82 302.11 260.25 302.11 260.69 302.11 260.69 301.8 260.25 301.8 260.25 301.8"/><path class="cls-2" d="M260.71,302.13h-.92v-.36h.92Zm-.87,0h.83v-.27h-.83Z"/><polygon class="cls-2" points="258.63 302.24 258.18 302.24 258.49 302.6 258.78 302.24 258.63 302.24 258.63 302.24"/><path class="cls-2" d="M258.49,302.63l-.36-.41h.7l-.34.41Zm-.26-.36.26.29.25-.29Z"/><polygon class="cls-2" points="259.26 301.67 259.53 301.35 257.86 301.35 257.75 301.22 259.63 301.22 259.82 301 259.82 301.22 260.05 301.22 260 301.29 260.05 301.22 260.25 301.22 260.69 301.22 260.69 300.9 259.18 300.9 259.18 300.9 258.76 300.9 258.49 301.21 258.2 300.9 256.7 300.9 256.27 300.9 256.27 301.22 256.7 301.22 257.14 301.22 257.14 301.05 257.29 301.22 257.58 301.22 257.75 301.22 257.86 301.35 257.58 301.35 257.4 301.35 257.68 301.67 258.13 301.67 258.25 301.8 258.13 301.67 259.26 301.67 259.26 301.67"/><path class="cls-2" d="M258.23,301.81l-.11-.12h-.45l-.32-.36h.46l-.07-.09h-.46l-.11-.13v.13h-.92v-.36h2l.28.3.26-.3h2v.36h-.65l-.05.06h-.21v-.18l-.14.18h-1.85l.07.09h1.7l-.3.36h-1.09l.08.09h0Zm-.14-.17h1.16l.23-.27h-2l.24.27Zm2-.44h.57v-.27h-1.9l-.24.27h1.09l.22-.26v.26Zm-2.4,0h.75l-.26-.27h-1.9v.27h.83V301l.18.21Z"/><polygon class="cls-2" points="256.7 303.14 256.27 303.14 256.27 303.44 257.14 303.44 257.14 303.14 256.7 303.14 256.7 303.14"/><path class="cls-2" d="M257.17,303.46h-.92v-.35h.92Zm-.88,0h.83v-.26h-.83Z"/><polygon class="cls-2" points="258.89 302.11 259.16 301.8 258.25 301.8 257.79 301.8 258.07 302.11 258.52 302.11 258.63 302.24 258.52 302.11 258.89 302.11 258.89 302.11"/><path class="cls-2" d="M258.61,302.26l-.1-.13h-.45l-.32-.36h1.46l-.3.36h-.33l.08.1h0Zm-.14-.17h.41l.23-.27h-1.27l.24.27Z"/><polygon class="cls-2" points="257.01 299.09 256.91 298.99 256.7 298.99 256.7 299.09 257.01 299.09 257.01 299.09"/><polygon class="cls-2" points="262.05 299.09 262.05 298.99 264.71 298.99 264.71 299.09 262.05 299.09 262.05 299.09"/><polygon class="cls-2" points="262.05 299.57 262.05 299.43 264.71 299.43 264.71 299.57 262.05 299.57 262.05 299.57"/><polygon class="cls-2" points="262.05 300.01 262.05 299.88 262.92 299.88 262.92 300.01 262.05 300.01 262.05 300.01"/><polygon class="cls-2" points="262.05 300.46 262.05 300.33 262.92 300.33 262.92 300.46 262.05 300.46 262.05 300.46"/><polygon class="cls-2" points="262.05 300.91 262.05 300.78 264.71 300.78 264.71 300.91 262.05 300.91 262.05 300.91"/><polygon class="cls-2" points="262.05 301.35 262.05 301.23 264.71 301.23 264.71 301.35 262.05 301.35 262.05 301.35"/><polygon class="cls-2" points="262.05 301.8 262.05 301.67 262.92 301.67 262.92 301.8 262.05 301.8 262.05 301.8"/><polygon class="cls-2" points="262.05 302.25 262.05 302.11 262.92 302.11 262.92 302.25 262.05 302.25 262.05 302.25"/><polygon class="cls-2" points="262.05 302.69 262.05 302.56 264.71 302.56 264.71 302.69 262.05 302.69 262.05 302.69"/><polygon class="cls-2" points="262.05 303.14 262.05 303.01 264.71 303.01 264.71 303.14 262.05 303.14 262.05 303.14"/><path class="cls-2" d="M268.37,299.43h-2.73v.14h2.87l-.14-.14Z"/><path class="cls-2" d="M268.76,299.88h-3.14V300h3.24l-.1-.13Z"/><polygon class="cls-2" points="265.62 300.46 265.62 300.33 266.5 300.33 266.5 300.46 265.62 300.46 265.62 300.46"/><polygon class="cls-2" points="265.62 300.91 265.62 300.77 266.5 300.77 266.5 300.91 265.62 300.91 265.62 300.91"/><polygon class="cls-2" points="265.62 301.35 265.62 301.22 266.5 301.22 266.5 301.35 265.62 301.35 265.62 301.35"/><polygon class="cls-2" points="265.62 301.8 265.62 301.67 266.5 301.67 266.5 301.8 265.62 301.8 265.62 301.8"/><polygon class="cls-2" points="265.62 302.25 265.62 302.11 266.5 302.11 266.5 302.25 265.62 302.25 265.62 302.25"/><path class="cls-2" d="M268.65,302.69h-3v-.13h3.13l-.1.13Z"/><path class="cls-2" d="M268.37,303h-2.71v.13h2.54A1.09,1.09,0,0,0,268.37,303Z"/><path class="cls-2" d="M269.07,300.46h-1l-.12-.13h1.11a.5.5,0,0,1,.05.13Z"/><path class="cls-2" d="M269.18,300.91h-.93a.58.58,0,0,0-.05-.14h1v.14Z"/><polygon class="cls-2" points="268.28 301.35 268.29 301.22 269.2 301.22 269.19 301.35 268.28 301.35 268.28 301.35"/><path class="cls-2" d="M269.11,301.8h-1a.31.31,0,0,0,.06-.13h.94Z"/><path class="cls-2" d="M267.83,302.25h1.11l.06-.14H268Z"/><path class="cls-2" d="M267.69,299.09h-2.07V299h1.55a1.84,1.84,0,0,1,.52.1Z"/><polygon class="cls-2" points="269.83 300.46 269.83 300.33 270.73 300.33 270.73 300.46 269.83 300.46 269.83 300.46"/><polygon class="cls-2" points="269.83 300.91 269.83 300.77 270.73 300.77 270.73 300.91 269.83 300.91 269.83 300.91"/><polygon class="cls-2" points="269.83 301.35 269.83 301.22 270.73 301.22 270.73 301.35 269.83 301.35 269.83 301.35"/><polygon class="cls-2" points="269.83 301.8 269.83 301.67 270.73 301.67 270.73 301.8 269.83 301.8 269.83 301.8"/><polygon class="cls-2" points="269.83 302.25 269.83 302.11 270.73 302.11 270.73 302.25 269.83 302.25 269.83 302.25"/><polygon class="cls-2" points="269.83 302.69 269.83 302.56 270.73 302.56 270.73 302.69 269.83 302.69 269.83 302.69"/><polygon class="cls-2" points="269.83 303.14 269.83 303 270.73 303 270.73 303.14 269.83 303.14 269.83 303.14"/><polygon class="cls-2" points="269.83 300.01 269.83 299.88 270.73 299.88 270.73 300.01 269.83 300.01 269.83 300.01"/><polygon class="cls-2" points="269.83 299.57 269.83 299.43 270.73 299.43 270.73 299.57 269.83 299.57 269.83 299.57"/><polygon class="cls-2" points="269.83 299.09 269.83 298.96 270.73 298.96 270.73 299.09 269.83 299.09 269.83 299.09"/><polygon class="cls-2" points="270.3 301.22 270.3 300.91 269.83 300.91 269.41 300.91 269.41 301.22 269.83 301.22 270.3 301.22 270.3 301.22"/><path class="cls-2" d="M270.37,301.24h-1v-.36h1Zm-.9,0h.85V301h-.85Z"/><polygon class="cls-2" points="270.3 300.33 270.3 300.01 269.83 300.01 269.41 300.01 269.41 300.33 269.83 300.33 270.3 300.33 270.3 300.33"/><path class="cls-2" d="M270.37,300.35h-1V300h1v.36Zm-.9-.05h.85V300h-.85v.3Z"/><polygon class="cls-2" points="270.3 299.43 270.3 299.09 269.83 299.09 269.41 299.09 269.41 299.43 269.83 299.43 270.3 299.43 270.3 299.43"/><path class="cls-2" d="M270.37,299.46h-1v-.39h1Zm-.9,0h.85v-.29h-.85Z"/><polygon class="cls-2" points="270.3 299.88 270.3 299.57 269.83 299.57 269.41 299.57 269.41 299.88 269.83 299.88 270.3 299.88 270.3 299.88"/><path class="cls-2" d="M270.37,299.9h-1v-.35h1Zm-.9,0h.85v-.27h-.85Z"/><polygon class="cls-2" points="270.3 300.77 270.3 300.46 269.83 300.46 269.41 300.46 269.41 300.77 269.83 300.77 270.3 300.77 270.3 300.77"/><path class="cls-2" d="M270.37,300.8h-1v-.36h1Zm-.9-.05h.85v-.27h-.85Z"/><polygon class="cls-2" points="270.3 303 270.3 302.69 269.83 302.69 269.41 302.69 269.41 303 269.83 303 270.3 303 270.3 303"/><path class="cls-2" d="M270.37,303h-1v-.36h1Zm-.9,0h.85v-.27h-.85Z"/><polygon class="cls-2" points="269.83 303.14 269.41 303.14 269.41 303.44 270.3 303.44 270.3 303.14 269.83 303.14 269.83 303.14"/><path class="cls-2" d="M270.37,303.46h-1v-.34h1Zm-.9,0h.85v-.26h-.85Z"/><polygon class="cls-2" points="270.3 302.11 270.3 301.8 269.83 301.8 269.41 301.8 269.41 302.11 269.83 302.11 270.3 302.11 270.3 302.11"/><path class="cls-2" d="M270.37,302.13h-1v-.35h1Zm-.9,0h.85v-.27h-.85Z"/><polygon class="cls-2" points="270.3 301.67 270.3 301.35 269.83 301.35 269.41 301.35 269.41 301.67 269.83 301.67 270.3 301.67 270.3 301.67"/><path class="cls-2" d="M270.37,301.69h-1v-.36h1Zm-.9-.05h.85v-.26h-.85Z"/><polygon class="cls-2" points="270.3 302.56 270.3 302.25 269.83 302.25 269.41 302.25 269.41 302.56 269.83 302.56 270.3 302.56 270.3 302.56"/><path class="cls-2" d="M270.37,302.58h-1v-.36h1Zm-.9,0h.85v-.27h-.85Z"/><polygon class="cls-2" points="273.9 303.14 273.85 303 274.75 303 274.8 303.14 273.9 303.14 273.9 303.14"/><polygon class="cls-2" points="271.27 302.69 271.32 302.56 274.56 302.56 274.62 302.69 271.27 302.69 271.27 302.69"/><polygon class="cls-2" points="271.45 302.25 271.5 302.11 274.38 302.11 274.43 302.25 271.45 302.25 271.45 302.25"/><polygon class="cls-2" points="273.35 301.8 273.29 301.67 274.19 301.67 274.25 301.8 273.35 301.8 273.35 301.8"/><polygon class="cls-2" points="273.16 301.35 273.11 301.22 274 301.22 274.06 301.35 273.16 301.35 273.16 301.35"/><polygon class="cls-2" points="272.98 300.91 272.92 300.77 273.82 300.77 273.88 300.91 272.98 300.91 272.98 300.91"/><polygon class="cls-2" points="272.18 300.46 272.24 300.33 273.64 300.33 273.7 300.46 272.18 300.46 272.18 300.46"/><polygon class="cls-2" points="272.54 301.8 272.59 301.67 271.69 301.67 271.64 301.8 272.54 301.8 272.54 301.8"/><polygon class="cls-2" points="272.72 301.35 272.78 301.22 271.88 301.22 271.82 301.35 272.72 301.35 272.72 301.35"/><polygon class="cls-2" points="272.9 300.91 272.96 300.77 272.06 300.77 272 300.91 272.9 300.91 272.9 300.91"/><polygon class="cls-2" points="271.08 303.14 271.13 303 272.03 303 271.98 303.14 271.08 303.14 271.08 303.14"/><polygon class="cls-2" points="272.37 300.01 272.43 299.88 273.46 299.88 273.51 300.01 272.37 300.01 272.37 300.01"/><polygon class="cls-2" points="272.55 299.57 272.61 299.43 273.27 299.43 273.33 299.57 272.55 299.57 272.55 299.57"/><polygon class="cls-2" points="272.75 299.09 272.8 298.96 273.08 298.96 273.13 299.09 272.75 299.09 272.75 299.09"/><path class="cls-2" d="M143.77,309.79c0-.45.41-.8,1-.8a2.19,2.19,0,0,1,1.42.53l.32-.43a2.54,2.54,0,0,0-1.73-.6,1.43,1.43,0,0,0-1.6,1.26.28.28,0,0,0,0,.09c0,.81.52,1.18,1.65,1.43s1.28.47,1.28.94-.44.84-1.1.84a2.38,2.38,0,0,1-1.69-.69l-.34.4a2.87,2.87,0,0,0,2,.79c1,0,1.68-.55,1.68-1.4s-.51-1.16-1.6-1.4-1.34-.49-1.34-1m-7.59-1.23h-3.55v4.92h3.59V313h-3v-1.72h2.69v-.5h-2.69V309.1h3ZM124.86,310c0,.64-.53,1-1.27,1h-1.51v-2h1.52c.79,0,1.26.37,1.26,1m.74,3.43-1.51-2a1.45,1.45,0,0,0,1.33-1.44c0-.89-.69-1.47-1.78-1.47h-2.11v4.92h.55v-1.91h1.41l1.43,1.91Zm-11.39-4.92h-.56v2.86c0,1.08-.58,1.62-1.48,1.62a1.44,1.44,0,0,1-1.52-1.37,1.29,1.29,0,0,1,0-.28v-2.83h-.55v2.86a2,2,0,0,0,4.1,0Zm-12.72.51h1.65v-.51H99.27V309h1.65v4.41h.57Zm-8.84,3.63-.37-.36a2.13,2.13,0,0,1-1.59.71,2,2,0,0,1,0-4.06,2.15,2.15,0,0,1,1.55.67l.38-.4a2.56,2.56,0,0,0-1.92-.78,2.54,2.54,0,0,0,0,5.08,2.59,2.59,0,0,0,2-.86m-12.22.78H81v-4.92h-.55Zm-7.63-3.33c0,.65-.54,1.09-1.35,1.09H70.28V309h1.24c.8,0,1.33.37,1.33,1.08m.56,0c0-1-.73-1.57-1.84-1.57H69.73v4.92h.55v-1.74h1.19c1,0,1.94-.54,1.94-1.61"/><path class="cls-2" d="M103.37,297.18a3.25,3.25,0,1,0-3.23,3.27h0a3.16,3.16,0,0,0,3.21-3.11v-.16m20.23,0a3,3,0,0,0-1.49-2.76,4.75,4.75,0,0,0-2.32-.39h-.36v6.26h.4a4.92,4.92,0,0,0,2.36-.43,3,3,0,0,0,1.41-2.68m14-.24c1.39,0,2-.44,2-1.47,0-.86-.35-1.44-2.06-1.44h-.8v2.91Zm1.26,1.49,2.63,3.58h-2.22l-2.55-3.71V302h-1.8v-9.7h2.8a3.65,3.65,0,0,1,2.65.7,3,3,0,0,1,1,2.39,2.93,2.93,0,0,1-2.54,3M132.69,302h-5.22v-9.7h5.22V294h-3.42v2.28h3.27V298h-3.27v2.26h3.42Zm-7.32-4.82a4.58,4.58,0,0,1-2.38,4.3,6.77,6.77,0,0,1-3.14.53h-2.26v-9.7h2.22a6.72,6.72,0,0,1,3.44.69,4.69,4.69,0,0,1,2.12,4.18M115.11,302h-2l-4.06-7v7h-1.8v-9.7h2l4,7.06V292.3h1.8Zm-9.94-4.86a4.94,4.94,0,0,1-4.88,5h-.12a5,5,0,1,1,5-5m-11-4.84-2.8,9.7H89.94l-1.57-6.41L86.77,302h-1.4l-2.85-9.7h1.84l1.71,6.77,1.65-6.77H89l1.63,6.77,1.72-6.77ZM76.37,302H74.58v-9.7h1.79Zm70.74-12.95H69v16.2h78.15Z"/></g></g></g></g></svg>